<svg version="1.1" id="Layer_1" xmlns="http://www.w3.org/2000/svg" xmlns:xlink="http://www.w3.org/1999/xlink" x="0px" y="0px"
	 width="100%" viewBox="0 0 1024 1024" enable-background="new 0 0 1024 1024" xml:space="preserve">
<path fill="#FFEFFF" opacity="1.000000" stroke="none" 
	d="
M547.000000,1025.000000 
	C364.666656,1025.000000 182.833328,1025.000000 1.000000,1025.000000 
	C1.000000,683.666687 1.000000,342.333344 1.000000,1.000000 
	C342.333344,1.000000 683.666687,1.000000 1025.000000,1.000000 
	C1025.000000,342.333344 1025.000000,683.666687 1025.000000,1025.000000 
	C865.833313,1025.000000 706.666687,1025.000000 547.000000,1025.000000 
M496.714752,450.423615 
	C495.809845,449.949463 494.904938,449.475342 493.252625,449.011475 
	C490.544983,450.189301 487.463379,450.889587 485.213257,452.651703 
	C481.402374,455.636108 475.324310,457.470459 477.717621,464.739136 
	C477.985474,465.552673 474.851196,467.920044 472.948730,468.884064 
	C471.278015,469.730560 469.038208,469.367676 467.196838,469.980774 
	C462.884155,471.416779 458.773926,473.749847 454.369537,474.545807 
	C449.252625,475.470490 443.891388,475.518402 438.667969,475.272278 
	C429.772278,474.853180 420.897888,473.315735 412.021240,473.368652 
	C404.860138,473.411346 397.892548,474.814728 390.527985,473.241028 
	C382.511292,471.527924 374.093567,471.171204 365.857513,471.226898 
	C361.820709,471.254211 355.962097,472.339264 354.152679,475.076904 
	C350.365936,480.806152 345.747528,481.288757 340.090057,481.022339 
	C335.388275,480.800934 334.191742,479.392639 335.235260,474.792236 
	C335.491730,473.661774 335.967590,472.582855 336.299683,471.467468 
	C338.163788,465.207062 336.483582,461.305450 330.781982,458.370758 
	C327.731750,456.800812 324.697479,455.188110 321.742584,453.447723 
	C318.281189,451.409058 315.090057,447.869629 311.464935,447.393707 
	C305.946930,446.669220 304.740143,444.019531 305.029083,439.484344 
	C305.217621,436.524597 304.684723,433.938385 301.421478,433.331299 
	C296.484772,432.412842 295.434570,429.315674 295.988983,424.964478 
	C296.450806,421.340149 294.709930,419.201050 291.205109,418.636963 
	C289.109070,418.299622 286.916870,418.029572 284.829346,418.267792 
	C278.042206,419.042419 274.194885,416.594116 271.746674,410.164520 
	C271.239716,408.833160 269.324219,407.168030 268.028900,407.142731 
	C256.208679,406.911957 244.378983,406.863464 232.559509,407.113678 
	C229.542709,407.177551 226.464233,407.927551 225.727417,412.219818 
	C225.471420,413.711060 222.606094,415.766327 220.893967,415.803864 
	C215.976532,415.911621 211.660767,416.272034 208.988937,421.255463 
	C208.457764,422.246216 206.463272,422.449219 205.146698,423.022736 
	C201.465088,424.626465 197.220322,425.563263 194.275482,428.043091 
	C191.721191,430.194000 189.299179,434.048889 189.190811,437.231415 
	C188.973450,443.614563 186.969421,448.030762 181.241882,450.952026 
	C180.022552,451.573914 179.540115,454.616302 178.611984,454.668915 
	C173.954041,454.932831 175.192154,458.167145 174.991714,460.789185 
	C174.723434,464.298889 177.074295,465.133026 179.778595,466.077789 
	C181.255585,466.593781 183.230026,467.998932 183.409790,469.231995 
	C183.573181,470.352692 181.564499,471.749146 180.597580,473.085022 
	C179.147141,475.089020 176.831116,477.040802 176.587784,479.206299 
	C176.243942,482.266388 177.396774,485.512878 178.027832,488.655975 
	C178.310501,490.063751 178.479080,491.818176 179.388809,492.719635 
	C183.116119,496.413208 184.563690,500.773071 183.983536,505.867950 
	C183.555176,509.629883 184.803375,512.148804 188.421249,513.807617 
	C193.086823,515.946838 192.837585,520.920166 192.602463,524.666565 
	C192.354477,528.617737 187.932358,528.601257 184.648239,528.986633 
	C183.990967,529.063782 183.301041,528.905945 182.653687,529.016968 
	C179.417801,529.571594 175.911453,529.586182 173.040970,530.938538 
	C170.256516,532.250244 171.567017,542.383179 173.551132,544.924072 
	C176.174942,548.284180 178.889023,552.148560 179.713898,556.175232 
	C180.519974,560.110107 181.833023,561.036194 185.433502,561.119690 
	C187.810349,561.174805 190.218903,562.226135 192.505066,563.111023 
	C194.469055,563.871155 196.208710,565.210510 198.172272,565.972107 
	C202.757095,567.750305 208.632019,565.392761 212.184143,570.684998 
	C215.491898,575.613342 219.824097,578.447632 226.159058,576.227173 
	C227.113342,575.892639 228.394714,576.597107 229.534164,576.666260 
	C233.844055,576.927734 238.157806,577.125427 242.680222,577.357788 
	C242.369522,574.912781 242.184448,573.456360 242.519669,571.447144 
	C244.680832,570.964722 246.841995,570.482361 249.410065,569.826721 
	C249.669739,569.667236 249.862411,569.448730 250.837357,569.023010 
	C252.556793,569.092102 254.276245,569.161194 255.995499,569.997314 
	C256.920471,575.314575 250.404160,572.909241 249.093796,576.972656 
	C250.731049,577.345459 252.185715,577.617126 253.604309,578.016846 
	C254.954483,578.397217 256.946228,578.516357 257.480072,579.434204 
	C259.975983,583.725647 262.095917,583.299011 264.583771,579.522400 
	C265.060638,578.798523 266.178070,578.496582 267.831818,578.000000 
	C270.221222,577.666687 272.610596,577.333374 275.929077,577.000000 
	C287.621002,576.463684 299.975464,578.247498 308.782593,567.612366 
	C309.803436,566.379578 311.429169,565.291626 311.744873,563.902588 
	C312.483398,560.653198 313.432831,558.635437 317.400208,559.700928 
	C318.128174,559.896423 319.789612,558.165466 320.379669,556.999573 
	C321.571960,554.643738 322.106750,551.951050 323.331146,549.616760 
	C324.228058,547.906860 325.936218,545.180664 327.031738,545.295837 
	C329.938507,545.601440 332.883850,546.904602 335.456604,548.418152 
	C336.651642,549.121216 337.052917,551.217407 337.752502,552.710876 
	C340.473541,558.520081 347.700836,561.552612 353.311737,558.330139 
	C357.089447,556.160522 359.262268,557.191162 361.317657,560.002075 
	C363.278625,562.683899 365.453888,563.441345 368.644989,562.374512 
	C370.313934,561.816528 372.275574,561.913147 374.084045,562.032410 
	C381.409149,562.515442 388.275757,560.947083 394.760925,557.617798 
	C396.796844,556.572571 399.839935,555.765198 400.499847,554.091248 
	C402.378632,549.325562 405.935455,549.729309 409.568329,550.144287 
	C414.336365,550.688782 416.843658,549.104004 417.947174,544.613098 
	C418.330414,543.053284 419.181854,541.608459 419.819458,540.111084 
	C421.187042,541.343994 423.259796,542.327515 423.799438,543.853271 
	C426.064331,550.256958 431.550873,553.574707 436.541901,557.010254 
	C440.100983,559.460022 444.132599,561.058044 449.351562,557.956543 
	C452.748474,555.937805 457.323700,556.197021 458.515320,551.133484 
	C458.652100,550.552185 459.783020,550.106262 460.533112,549.784241 
	C464.622925,548.028442 468.696808,546.223450 472.854065,544.639893 
	C478.525452,542.479675 482.410980,544.409119 482.729767,550.425903 
	C483.016968,555.847351 486.430054,558.478088 490.332336,558.681702 
	C501.868042,559.283813 513.659790,560.088013 524.944275,558.276794 
	C530.737305,557.347046 536.505676,556.320984 542.406860,555.963135 
	C546.848633,555.693787 551.262268,554.952026 555.704285,554.701477 
	C557.413269,554.605042 560.000366,554.675232 560.761292,555.714111 
	C565.146484,561.700684 571.914429,559.978760 576.248718,558.394775 
	C582.203979,556.218323 586.681824,558.239990 590.559937,560.658936 
	C597.302368,564.864502 603.325195,565.000549 610.182678,561.623352 
	C614.112854,559.687805 618.970032,556.604553 622.497864,557.526733 
	C629.368835,559.322815 635.777588,558.741760 642.535156,558.256348 
	C647.034485,557.933167 651.653564,559.212708 656.213379,559.818054 
	C658.880188,560.172058 661.700195,561.385620 664.164673,560.862305 
	C670.859192,559.440918 678.228455,561.372559 684.342468,556.870117 
	C684.995911,556.388916 686.969177,556.540039 687.400269,557.106140 
	C690.100891,560.651978 693.974243,560.573608 697.436829,559.878174 
	C705.387634,558.281555 713.164307,556.436951 720.826477,560.925537 
	C721.695618,561.434692 723.200867,561.272949 724.272827,560.955383 
	C732.792847,558.431274 743.283447,560.328979 748.508728,550.278259 
	C748.777771,549.760803 749.485413,549.299194 750.074768,549.149170 
	C753.234314,548.344849 752.811218,546.376953 752.520020,543.749878 
	C751.512329,534.656006 751.300598,525.576904 756.072510,517.195862 
	C757.682434,514.368469 762.901733,512.595215 766.071899,514.290649 
	C769.388550,516.064392 767.517883,518.684387 767.009399,521.257568 
	C766.562744,523.517944 766.473511,526.221924 767.311462,528.290405 
	C769.475098,533.631104 771.024719,538.913818 768.950256,544.548767 
	C767.803589,547.663391 768.791260,549.113892 771.824280,550.032471 
	C775.741821,551.218811 779.318054,552.855835 779.161438,558.049927 
	C779.133728,558.968811 780.574219,560.721924 781.384216,560.750671 
	C787.740051,560.976379 794.107422,560.875854 800.471313,560.875854 
	C800.536621,560.226196 800.601929,559.576538 800.667297,558.926819 
	C798.991516,558.702759 797.312561,558.278442 795.640747,558.304932 
	C793.507996,558.338501 791.348389,559.058044 789.264771,558.846863 
	C788.160217,558.734863 787.191956,557.279053 786.162170,556.429871 
	C787.239685,555.625977 788.226624,554.616577 789.425598,554.088318 
	C790.265198,553.718384 791.435486,554.185669 792.387024,553.968140 
	C796.733765,552.974426 802.522156,554.544250 803.564941,547.498047 
	C803.704773,546.553162 805.791565,545.546448 807.140808,545.190735 
	C813.163696,543.602905 821.507507,547.323547 825.534485,552.544983 
	C826.667053,554.013428 830.492798,555.538940 830.978638,555.029846 
	C834.453125,551.388916 838.192322,553.113647 842.092529,553.359436 
	C844.579224,553.516052 848.747864,552.713745 849.434753,551.146240 
	C852.088989,545.088989 854.833130,538.920410 855.072571,532.026428 
	C855.196411,528.458740 856.284119,524.933960 856.583435,521.360168 
	C856.855835,518.109619 856.027100,514.669495 856.769409,511.573181 
	C859.287354,501.070709 851.653992,493.522888 849.366333,484.453400 
	C849.303101,484.202698 848.474304,484.145172 847.999329,483.500305 
	C847.999329,483.500305 847.995117,483.003021 847.583069,482.448975 
	C844.722046,481.965973 841.861023,481.483002 838.250000,481.000000 
	C837.500000,480.999603 836.750000,480.999176 835.889160,480.313141 
	C834.926941,479.875031 833.964661,479.436890 833.001526,478.268219 
	C832.667664,477.179199 832.333862,476.090210 831.892029,474.228668 
	C830.752625,473.489441 829.550659,472.043610 828.484985,472.137878 
	C824.631897,472.478546 820.824585,473.337006 816.333374,473.999634 
	C815.888916,473.999359 815.444458,473.999054 814.647095,473.350800 
	C811.998779,473.233795 809.351135,473.097443 806.702026,473.003265 
	C797.082581,472.661224 787.458679,471.991669 777.844116,472.104004 
	C769.590393,472.200409 761.353210,473.303558 753.097717,473.765625 
	C744.321838,474.256836 735.530701,474.469055 726.750793,474.896088 
	C720.960754,475.177704 715.180969,475.668701 709.391174,475.956604 
	C708.283386,476.011658 706.789856,475.937561 706.087952,475.273956 
	C701.918579,471.332245 696.814087,472.758606 692.295593,473.313263 
	C686.186035,474.063324 681.236511,472.993713 677.158630,468.362152 
	C674.349670,465.171844 671.877014,465.571167 668.702332,468.302582 
	C666.236328,470.424225 663.002808,471.895874 659.872009,472.945160 
	C655.331299,474.466949 650.155090,474.702789 649.797668,481.317749 
	C649.734009,482.496429 648.222839,483.596954 647.485352,484.591522 
	C645.583984,483.123474 644.035217,481.927612 642.341003,480.619476 
	C638.982056,488.624969 633.939941,489.962189 628.222351,484.865417 
	C626.188232,483.052155 624.632690,479.962799 622.342529,479.333160 
	C617.860413,478.100861 612.357300,480.351654 609.130615,475.067474 
	C599.946167,475.868042 590.283447,471.482300 581.604187,477.189941 
	C578.250793,479.395203 575.270569,481.724060 570.907532,481.240265 
	C570.416687,481.185822 569.642700,483.684967 568.130371,485.000000 
	C562.838806,483.949799 560.744812,486.615387 559.974060,491.500610 
	C559.607788,493.821960 558.181091,495.968719 557.289490,498.216248 
	C556.164062,501.053162 555.205139,503.961395 553.968323,506.747345 
	C552.824219,509.324371 551.968628,512.409241 549.999817,514.164124 
	C545.380676,518.281494 539.619202,520.229675 533.400513,518.908020 
	C527.778992,517.713379 521.076538,513.570312 522.056458,507.994629 
	C524.942749,491.572906 523.014221,474.987579 522.792480,458.474243 
	C522.736450,454.302216 521.191772,449.738342 516.088440,449.356628 
	C512.453552,449.084839 508.700378,450.395538 504.111786,451.000000 
	C501.741608,450.999603 499.371399,450.999176 496.714752,450.423615 
M844.566833,560.296875 
	C842.089966,555.979919 839.400513,555.786133 833.910278,560.844116 
	C838.146667,560.844116 841.125122,560.844116 844.566833,560.296875 
M559.186157,558.044373 
	C557.867615,558.485229 556.549072,558.926086 553.950562,559.794861 
	C559.606995,561.208191 559.606995,561.208191 559.186157,558.044373 
M462.557281,559.291382 
	C462.289795,559.010925 462.022339,558.730408 461.754883,558.449951 
	C461.638794,558.560791 461.415680,558.762024 461.421997,558.769531 
	C461.671661,559.065308 461.942139,559.343445 462.557281,559.291382 
z"/>
<path fill="#FDF3FD" opacity="1.000000" stroke="none" 
	d="
M241.999390,572.000000 
	C242.184448,573.456360 242.369522,574.912781 242.680222,577.357788 
	C238.157806,577.125427 233.844055,576.927734 229.534164,576.666260 
	C228.394714,576.597107 227.113342,575.892639 226.159058,576.227173 
	C219.824097,578.447632 215.491898,575.613342 212.184143,570.684998 
	C208.632019,565.392761 202.757095,567.750305 198.172272,565.972107 
	C196.208710,565.210510 194.469055,563.871155 192.505066,563.111023 
	C190.218903,562.226135 187.810349,561.174805 185.433502,561.119690 
	C181.833023,561.036194 180.519974,560.110107 179.713898,556.175232 
	C178.889023,552.148560 176.174942,548.284180 173.551132,544.924072 
	C171.567017,542.383179 170.256516,532.250244 173.040970,530.938538 
	C175.911453,529.586182 179.417801,529.571594 182.653687,529.016968 
	C183.301041,528.905945 183.990967,529.063782 184.648239,528.986633 
	C187.932358,528.601257 192.354477,528.617737 192.602463,524.666565 
	C192.837585,520.920166 193.086823,515.946838 188.421249,513.807617 
	C184.803375,512.148804 183.555176,509.629883 183.983536,505.867950 
	C184.563690,500.773071 183.116119,496.413208 179.388809,492.719635 
	C178.479080,491.818176 178.310501,490.063751 178.027832,488.655975 
	C177.396774,485.512878 176.243942,482.266388 176.587784,479.206299 
	C176.831116,477.040802 179.147141,475.089020 180.597580,473.085022 
	C181.564499,471.749146 183.573181,470.352692 183.409790,469.231995 
	C183.230026,467.998932 181.255585,466.593781 179.778595,466.077789 
	C177.074295,465.133026 174.723434,464.298889 174.991714,460.789185 
	C175.192154,458.167145 173.954041,454.932831 178.611984,454.668915 
	C179.540115,454.616302 180.022552,451.573914 181.241882,450.952026 
	C186.969421,448.030762 188.973450,443.614563 189.190811,437.231415 
	C189.299179,434.048889 191.721191,430.194000 194.275482,428.043091 
	C197.220322,425.563263 201.465088,424.626465 205.146698,423.022736 
	C206.463272,422.449219 208.457764,422.246216 208.988937,421.255463 
	C211.660767,416.272034 215.976532,415.911621 220.893967,415.803864 
	C222.606094,415.766327 225.471420,413.711060 225.727417,412.219818 
	C226.464233,407.927551 229.542709,407.177551 232.559509,407.113678 
	C244.378983,406.863464 256.208679,406.911957 268.028900,407.142731 
	C269.324219,407.168030 271.239716,408.833160 271.746674,410.164520 
	C274.194885,416.594116 278.042206,419.042419 284.829346,418.267792 
	C286.916870,418.029572 289.109070,418.299622 291.205109,418.636963 
	C294.709930,419.201050 296.450806,421.340149 295.988983,424.964478 
	C295.434570,429.315674 296.484772,432.412842 301.421478,433.331299 
	C304.684723,433.938385 305.217621,436.524597 305.029083,439.484344 
	C304.740143,444.019531 305.946930,446.669220 311.464935,447.393707 
	C315.090057,447.869629 318.281189,451.409058 321.742584,453.447723 
	C324.697479,455.188110 327.731750,456.800812 330.781982,458.370758 
	C336.483582,461.305450 338.163788,465.207062 336.299683,471.467468 
	C335.967590,472.582855 335.491730,473.661774 335.235260,474.792236 
	C334.191742,479.392639 335.388275,480.800934 340.090057,481.022339 
	C345.747528,481.288757 350.365936,480.806152 354.152679,475.076904 
	C355.962097,472.339264 361.820709,471.254211 365.857513,471.226898 
	C374.093567,471.171204 382.511292,471.527924 390.527985,473.241028 
	C397.892548,474.814728 404.860138,473.411346 412.021240,473.368652 
	C420.897888,473.315735 429.772278,474.853180 438.667969,475.272278 
	C443.891388,475.518402 449.252625,475.470490 454.369537,474.545807 
	C458.773926,473.749847 462.884155,471.416779 467.196838,469.980774 
	C469.038208,469.367676 471.278015,469.730560 472.948730,468.884064 
	C474.851196,467.920044 477.985474,465.552673 477.717621,464.739136 
	C475.324310,457.470459 481.402374,455.636108 485.213257,452.651703 
	C487.463379,450.889587 490.544983,450.189301 493.621826,449.369690 
	C493.993713,451.786316 493.996368,453.844666 493.754395,456.229126 
	C493.314178,459.369965 493.118652,462.184723 492.519470,465.002075 
	C486.568024,465.990692 489.007263,470.633423 488.507446,473.629364 
	C487.965851,476.875824 488.530548,480.275024 484.544434,482.037415 
	C483.820801,481.954865 483.409882,481.890839 482.978363,481.423340 
	C482.524750,480.390289 482.112061,479.231506 481.655579,479.213959 
	C477.559753,479.056580 473.446350,478.946838 469.363098,479.210266 
	C468.522339,479.264526 467.785645,480.931580 466.630310,481.967468 
	C465.209473,483.774384 463.992371,485.389740 463.141815,487.179291 
	C460.972046,491.744629 458.965881,496.387726 456.572601,500.942871 
	C454.942627,500.780670 453.227661,500.101227 452.406158,500.683136 
	C450.367249,502.127350 448.736206,504.147369 446.941345,505.936157 
	C445.947296,503.574768 444.946899,501.216003 443.967102,498.848694 
	C443.844238,498.551849 443.933319,498.019867 443.748962,497.919800 
	C442.567444,497.278473 441.336914,496.727356 440.122528,496.146545 
	C439.743958,497.258942 439.396210,498.383148 438.977081,499.480042 
	C438.641815,500.357452 438.219696,501.201660 437.512512,501.878601 
	C434.985382,495.893311 432.811584,490.078339 430.545166,484.299713 
	C430.218933,483.467987 429.462280,482.184784 428.878113,482.170044 
	C422.696381,482.014435 416.509216,482.073608 410.333282,482.073608 
	C410.333282,482.699463 410.292511,482.848358 410.339050,482.961212 
	C418.663696,503.148132 426.912170,523.367615 435.480804,543.450500 
	C436.169250,545.064087 438.949921,546.317383 440.958710,546.708191 
	C443.850922,547.270935 446.941132,546.710083 449.921753,546.945679 
	C456.916290,547.498657 458.126709,546.484253 460.904266,539.689819 
	C464.875671,529.974976 469.279327,520.436768 473.947998,510.869202 
	C482.042084,511.228760 483.925659,513.702393 482.892639,521.149597 
	C482.578827,523.412170 483.321136,525.873840 483.842194,528.185242 
	C484.400085,530.659912 485.617828,533.023376 485.911591,535.510559 
	C486.280457,538.633484 485.826263,541.847046 486.080109,544.992981 
	C486.204407,546.532959 487.217529,549.336487 487.673004,549.305237 
	C491.634277,549.033203 494.511139,555.160522 499.000977,551.226135 
	C499.405334,550.871765 500.288513,551.023865 500.950806,551.009583 
	C516.906860,550.667419 532.862305,550.255493 548.820251,550.077942 
	C551.484375,550.048218 554.439514,552.043274 556.779907,551.387817 
	C565.309509,548.998901 573.566711,550.507385 581.826416,552.184387 
	C585.707581,552.972290 587.845581,551.712036 589.394531,548.095642 
	C594.011230,547.999878 598.269348,548.316467 602.441406,547.854919 
	C608.305054,547.206238 614.104797,545.979797 620.259399,545.044861 
	C621.844788,547.117554 622.020630,549.885681 625.747742,549.692444 
	C632.839111,549.324585 639.964844,549.669006 647.068665,549.459961 
	C649.076538,549.400818 651.057983,548.447571 653.051575,547.904419 
	C652.968384,547.416199 652.885193,546.927979 652.802002,546.439697 
	C648.329468,545.553650 643.856995,544.667603 639.282776,543.761353 
	C639.301270,543.596436 639.352783,543.118286 639.408875,542.640686 
	C639.694580,540.208313 639.981506,537.776184 640.267944,535.343933 
	C637.636108,535.267883 635.003235,535.121643 632.372986,535.159302 
	C631.606140,535.170227 630.846802,535.705566 629.938721,535.684998 
	C625.088440,526.681458 624.349487,526.395752 615.209229,529.715759 
	C614.584778,529.942566 613.960205,530.176147 613.321045,530.354004 
	C604.480652,532.814880 595.654480,533.814209 587.163574,529.243835 
	C583.733582,527.397583 580.863281,524.916870 582.159546,519.963989 
	C584.075928,519.963989 585.893005,519.963074 587.710144,519.964050 
	C601.189453,519.971191 614.669250,520.037292 628.147217,519.904907 
	C629.665649,519.890015 632.043884,519.160095 632.548279,518.075684 
	C636.681213,509.189362 632.347107,492.276978 624.265015,486.514954 
	C613.950928,479.161591 602.144653,478.199402 589.942566,479.537964 
	C581.848267,480.425873 575.524353,484.939301 569.120483,488.982849 
	C569.050537,487.361450 569.025269,486.180725 569.000000,485.000000 
	C569.642700,483.684967 570.416687,481.185822 570.907532,481.240265 
	C575.270569,481.724060 578.250793,479.395203 581.604187,477.189941 
	C590.283447,471.482300 599.946167,475.868042 609.130615,475.067474 
	C612.357300,480.351654 617.860413,478.100861 622.342529,479.333160 
	C624.632690,479.962799 626.188232,483.052155 628.222351,484.865417 
	C633.939941,489.962189 638.982056,488.624969 642.341003,480.619476 
	C644.035217,481.927612 645.583984,483.123474 647.485352,484.591522 
	C648.222839,483.596954 649.734009,482.496429 649.797668,481.317749 
	C650.155090,474.702789 655.331299,474.466949 659.872009,472.945160 
	C663.002808,471.895874 666.236328,470.424225 668.702332,468.302582 
	C671.877014,465.571167 674.349670,465.171844 677.158630,468.362152 
	C681.236511,472.993713 686.186035,474.063324 692.295593,473.313263 
	C696.814087,472.758606 701.918579,471.332245 706.087952,475.273956 
	C706.789856,475.937561 708.283386,476.011658 709.391174,475.956604 
	C715.180969,475.668701 720.960754,475.177704 726.750793,474.896088 
	C735.530701,474.469055 744.321838,474.256836 753.097717,473.765625 
	C761.353210,473.303558 769.590393,472.200409 777.844116,472.104004 
	C787.458679,471.991669 797.082581,472.661224 806.702026,473.003265 
	C809.351135,473.097443 811.998779,473.233795 814.628357,474.016724 
	C812.930298,475.121765 811.273071,475.710205 809.566101,475.961884 
	C807.460876,476.272339 805.315674,476.325562 803.185364,476.449768 
	C795.691589,476.886658 788.197998,477.328613 780.701660,477.717346 
	C778.754578,477.818268 776.797852,477.732483 774.380554,477.732483 
	C773.747131,477.174713 772.498291,476.075104 770.316711,474.154175 
	C770.655640,476.322235 770.773682,477.077332 770.769470,477.050568 
	C769.006226,477.782715 767.501709,478.407410 765.619446,479.115051 
	C764.212952,479.262421 763.184143,479.326843 761.937134,479.054504 
	C760.669128,478.262268 759.610107,477.394623 758.571106,477.418091 
	C751.697571,477.573212 744.815308,477.768127 737.971252,478.359955 
	C736.889343,478.453491 735.986633,480.620697 734.573975,481.904785 
	C732.128540,482.059875 730.110107,482.139374 727.906982,481.956726 
	C727.285828,481.698456 726.647278,481.514038 726.442627,481.733765 
	C721.494324,487.046936 721.628662,486.916656 716.662903,482.386017 
	C715.335327,481.174774 713.210083,477.684082 710.587830,481.969727 
	C708.781860,481.967438 707.390442,481.902710 705.943726,481.473053 
	C704.689209,480.089935 703.551331,478.293610 702.279785,478.193512 
	C697.735840,477.835754 693.146545,478.053497 688.453552,478.053497 
	C688.662781,480.239105 688.802795,481.701416 688.572266,483.099060 
	C684.134705,481.701019 680.067810,480.367645 675.998779,478.628540 
	C675.999939,473.619385 673.034790,475.168732 670.337280,475.349365 
	C670.595764,476.750000 670.797729,477.844391 670.583252,479.037903 
	C661.890442,479.677155 654.041199,481.404968 647.733276,487.321655 
	C642.912964,491.842957 643.880981,502.539948 649.852783,504.199677 
	C652.975647,505.067657 656.057556,506.082855 658.772461,506.913605 
	C660.529846,504.538513 661.623657,502.641876 663.108887,501.129639 
	C668.027954,496.121124 678.221313,494.753967 685.037598,498.021027 
	C692.744446,501.714905 694.952759,506.515381 694.044495,517.600342 
	C693.250366,527.293640 687.732971,532.186890 677.466919,532.302795 
	C666.867859,532.422424 660.940613,527.571472 659.810608,518.062012 
	C659.633362,516.570557 659.091431,514.585632 658.015503,513.832031 
	C653.669189,510.787933 645.205383,513.518188 642.939270,518.412415 
	C639.707397,525.392456 643.307556,537.259155 649.515198,542.104370 
	C658.259399,548.929382 668.139282,548.528992 678.174683,547.314392 
	C682.452637,546.796570 686.605408,545.666870 689.724609,542.094666 
	C690.815796,540.845032 692.819031,540.391846 695.599548,538.960449 
	C694.754089,541.111877 694.464905,541.847778 693.980225,542.906982 
	C692.351379,544.014954 690.383606,544.440796 689.575073,545.644897 
	C685.597168,551.569336 679.424561,553.892212 673.240662,556.965149 
	C675.305481,557.428040 677.790466,557.913086 679.334290,556.926086 
	C684.000366,553.943054 688.998657,553.974854 694.168762,553.968445 
	C696.506042,553.965515 698.842285,553.151855 701.178955,552.705994 
	C704.545044,552.630310 708.160461,553.409607 711.707703,554.426636 
	C715.300354,555.456665 716.595886,553.666809 716.981079,550.530640 
	C717.201843,548.733948 717.373047,546.931152 717.566589,545.131042 
	C717.999390,544.585876 718.432251,544.040649 718.865112,543.495483 
	C720.208618,551.352966 724.269043,549.471252 728.230225,547.998291 
	C728.528687,547.887329 728.887756,547.939636 729.613281,547.881958 
	C733.502686,546.041809 736.741577,546.573364 740.181946,548.939209 
	C741.698425,548.246521 742.815002,547.532471 744.029541,546.526428 
	C744.802856,545.489441 745.478210,544.744446 746.516235,543.989380 
	C747.987915,541.726013 749.949585,539.511047 750.053345,537.212219 
	C750.436523,528.717957 750.205750,520.195862 750.205750,511.684235 
	C750.921936,512.104675 751.638123,512.525085 752.354309,512.945496 
	C754.238403,511.959534 756.530640,511.360199 757.914307,509.899994 
	C760.187683,507.500854 761.784790,504.474579 763.852783,501.859589 
	C764.558655,500.967041 765.823425,500.516541 767.287842,499.569977 
	C768.998779,505.738617 771.152893,511.099518 771.860840,516.645020 
	C772.821045,524.165710 772.704590,531.826660 772.988342,539.429749 
	C773.133972,543.332153 774.015015,546.455872 779.165161,546.337158 
	C782.604187,547.166931 785.802734,547.659912 789.087097,548.502563 
	C796.113708,551.995239 800.951172,549.175598 800.996582,541.947815 
	C801.017517,538.617676 800.880676,535.280334 801.069702,531.960754 
	C801.137451,530.770325 801.880798,528.650513 802.438049,528.609314 
	C806.759277,528.290039 811.238770,527.721313 815.412476,528.539490 
	C818.841858,529.211853 821.500061,531.452698 821.264343,536.271851 
	C821.120728,539.207458 823.460632,542.293823 824.804810,545.258179 
	C825.333008,546.423218 826.814087,547.458679 826.782959,548.521484 
	C826.660400,552.705078 829.233826,552.017883 831.729065,551.592590 
	C833.977783,551.209290 836.295898,550.101807 838.433228,550.397949 
	C846.560791,551.524109 849.299377,549.453918 850.045227,541.331360 
	C850.451111,536.912231 851.793518,532.538391 851.838501,528.135193 
	C851.939148,518.295349 851.500122,508.449646 851.238770,498.607483 
	C851.226929,498.159912 850.684021,497.747253 850.589844,497.277893 
	C849.702332,492.856140 848.858704,488.425568 848.002441,483.997559 
	C848.474304,484.145172 849.303101,484.202698 849.366333,484.453400 
	C851.653992,493.522888 859.287354,501.070709 856.769409,511.573181 
	C856.027100,514.669495 856.855835,518.109619 856.583435,521.360168 
	C856.284119,524.933960 855.196411,528.458740 855.072571,532.026428 
	C854.833130,538.920410 852.088989,545.088989 849.434753,551.146240 
	C848.747864,552.713745 844.579224,553.516052 842.092529,553.359436 
	C838.192322,553.113647 834.453125,551.388916 830.978638,555.029846 
	C830.492798,555.538940 826.667053,554.013428 825.534485,552.544983 
	C821.507507,547.323547 813.163696,543.602905 807.140808,545.190735 
	C805.791565,545.546448 803.704773,546.553162 803.564941,547.498047 
	C802.522156,554.544250 796.733765,552.974426 792.387024,553.968140 
	C791.435486,554.185669 790.265198,553.718384 789.425598,554.088318 
	C788.226624,554.616577 787.239685,555.625977 786.162170,556.429871 
	C787.191956,557.279053 788.160217,558.734863 789.264771,558.846863 
	C791.348389,559.058044 793.507996,558.338501 795.640747,558.304932 
	C797.312561,558.278442 798.991516,558.702759 800.667297,558.926819 
	C800.601929,559.576538 800.536621,560.226196 800.471313,560.875854 
	C794.107422,560.875854 787.740051,560.976379 781.384216,560.750671 
	C780.574219,560.721924 779.133728,558.968811 779.161438,558.049927 
	C779.318054,552.855835 775.741821,551.218811 771.824280,550.032471 
	C768.791260,549.113892 767.803589,547.663391 768.950256,544.548767 
	C771.024719,538.913818 769.475098,533.631104 767.311462,528.290405 
	C766.473511,526.221924 766.562744,523.517944 767.009399,521.257568 
	C767.517883,518.684387 769.388550,516.064392 766.071899,514.290649 
	C762.901733,512.595215 757.682434,514.368469 756.072510,517.195862 
	C751.300598,525.576904 751.512329,534.656006 752.520020,543.749878 
	C752.811218,546.376953 753.234314,548.344849 750.074768,549.149170 
	C749.485413,549.299194 748.777771,549.760803 748.508728,550.278259 
	C743.283447,560.328979 732.792847,558.431274 724.272827,560.955383 
	C723.200867,561.272949 721.695618,561.434692 720.826477,560.925537 
	C713.164307,556.436951 705.387634,558.281555 697.436829,559.878174 
	C693.974243,560.573608 690.100891,560.651978 687.400269,557.106140 
	C686.969177,556.540039 684.995911,556.388916 684.342468,556.870117 
	C678.228455,561.372559 670.859192,559.440918 664.164673,560.862305 
	C661.700195,561.385620 658.880188,560.172058 656.213379,559.818054 
	C651.653564,559.212708 647.034485,557.933167 642.535156,558.256348 
	C635.777588,558.741760 629.368835,559.322815 622.497864,557.526733 
	C618.970032,556.604553 614.112854,559.687805 610.182678,561.623352 
	C603.325195,565.000549 597.302368,564.864502 590.559937,560.658936 
	C586.681824,558.239990 582.203979,556.218323 576.248718,558.394775 
	C571.914429,559.978760 565.146484,561.700684 560.761292,555.714111 
	C560.000366,554.675232 557.413269,554.605042 555.704285,554.701477 
	C551.262268,554.952026 546.848633,555.693787 542.406860,555.963135 
	C536.505676,556.320984 530.737305,557.347046 524.944275,558.276794 
	C513.659790,560.088013 501.868042,559.283813 490.332336,558.681702 
	C486.430054,558.478088 483.016968,555.847351 482.729767,550.425903 
	C482.410980,544.409119 478.525452,542.479675 472.854065,544.639893 
	C468.696808,546.223450 464.622925,548.028442 460.533112,549.784241 
	C459.783020,550.106262 458.652100,550.552185 458.515320,551.133484 
	C457.323700,556.197021 452.748474,555.937805 449.351562,557.956543 
	C444.132599,561.058044 440.100983,559.460022 436.541901,557.010254 
	C431.550873,553.574707 426.064331,550.256958 423.799438,543.853271 
	C423.259796,542.327515 421.187042,541.343994 419.819458,540.111084 
	C419.181854,541.608459 418.330414,543.053284 417.947174,544.613098 
	C416.843658,549.104004 414.336365,550.688782 409.568329,550.144287 
	C405.935455,549.729309 402.378632,549.325562 400.499847,554.091248 
	C399.839935,555.765198 396.796844,556.572571 394.760925,557.617798 
	C388.275757,560.947083 381.409149,562.515442 374.084045,562.032410 
	C372.275574,561.913147 370.313934,561.816528 368.644989,562.374512 
	C365.453888,563.441345 363.278625,562.683899 361.317657,560.002075 
	C359.262268,557.191162 357.089447,556.160522 353.311737,558.330139 
	C347.700836,561.552612 340.473541,558.520081 337.752502,552.710876 
	C337.052917,551.217407 336.651642,549.121216 335.456604,548.418152 
	C332.883850,546.904602 329.938507,545.601440 327.031738,545.295837 
	C325.936218,545.180664 324.228058,547.906860 323.331146,549.616760 
	C322.106750,551.951050 321.571960,554.643738 320.379669,556.999573 
	C319.789612,558.165466 318.128174,559.896423 317.400208,559.700928 
	C313.432831,558.635437 312.483398,560.653198 311.744873,563.902588 
	C311.429169,565.291626 309.803436,566.379578 308.782593,567.612366 
	C299.975464,578.247498 287.621002,576.463684 275.457520,576.612061 
	C274.323578,573.205627 273.661255,570.187134 273.312866,567.082153 
	C274.054382,566.920837 274.481964,566.846008 275.094238,567.133423 
	C279.339813,567.574158 284.181702,569.065247 287.258850,567.364136 
	C290.888763,565.357422 294.149750,563.490417 298.307587,563.385681 
	C301.952789,563.293884 304.845795,562.495361 306.210175,558.298401 
	C306.610626,557.066589 309.770294,556.201233 311.716370,556.094055 
	C320.178314,555.627625 321.322510,554.389648 319.574280,546.532959 
	C321.836456,545.260071 324.171600,544.075012 326.343506,542.642395 
	C326.964050,542.233093 327.111237,541.106079 327.475464,540.308167 
	C326.628662,540.060547 325.670746,539.431519 324.956757,539.639587 
	C323.108856,540.178101 321.368500,541.085632 319.589844,541.516541 
	C319.794220,540.206482 319.676086,538.961304 320.239929,538.283264 
	C336.618286,518.589783 338.183594,478.724457 310.601471,459.339081 
	C303.060059,454.038788 294.387115,450.348389 285.861450,445.717102 
	C285.434723,448.113586 285.262878,449.078888 284.794952,450.315033 
	C280.915070,447.261871 277.331268,443.937897 273.814667,440.197327 
	C274.284424,438.451721 274.686920,437.122681 275.387177,435.871643 
	C278.314880,434.371429 281.063873,432.954285 283.519287,431.139893 
	C284.580841,430.355499 285.882141,427.921967 285.624237,427.658783 
	C284.340698,426.348907 282.672974,425.100311 280.935944,424.684326 
	C280.081573,424.479736 278.629028,425.983093 277.727173,426.969482 
	C276.634949,428.164093 275.838837,429.629425 274.555969,430.902588 
	C272.231750,427.494110 264.560089,424.694275 260.957031,425.587769 
	C261.217621,424.065216 261.408722,422.928558 261.748535,421.838287 
	C262.899323,418.145844 260.812805,416.562317 257.707123,416.098846 
	C254.450333,415.612793 254.228531,418.215454 253.983063,420.512543 
	C253.860062,421.663635 253.881393,422.830170 253.484009,423.909363 
	C252.436737,422.298859 251.742905,420.768707 251.035217,419.207947 
	C246.797256,420.894897 242.681076,422.533356 238.325470,423.875732 
	C237.898514,422.144287 238.140991,420.418274 237.416214,419.346161 
	C236.478760,417.959503 234.769119,417.094849 233.391968,416.005402 
	C232.298035,417.483368 230.631821,418.834503 230.268494,420.474335 
	C229.892685,422.170502 230.781723,424.146942 230.733139,426.045380 
	C221.383133,427.640839 215.115829,433.810455 208.078064,438.690247 
	C206.234848,436.629913 204.874466,434.148438 202.842606,433.326111 
	C201.101257,432.621338 198.161530,433.196655 196.530304,434.328156 
	C194.512634,435.727783 194.848541,438.255219 196.702042,440.108429 
	C198.746307,442.152405 200.875961,444.110962 202.908081,446.438293 
	C197.991119,448.983246 197.996460,448.982422 198.982635,455.436218 
	C199.056244,455.918030 198.975845,456.423340 198.612000,456.867493 
	C189.178741,452.113403 187.130997,451.352417 183.468674,458.011658 
	C182.022308,459.280914 180.933090,460.539520 179.118500,462.636322 
	C183.162674,461.969055 185.383392,465.740051 188.454834,462.952454 
	C189.528625,463.355316 190.264862,463.761597 191.000671,464.558807 
	C191.449478,470.660492 186.343094,473.007294 183.820053,476.923706 
	C183.277634,477.765778 183.332809,478.992767 183.060974,480.440369 
	C184.006546,483.279663 185.003815,485.720978 186.000763,488.568909 
	C185.539536,495.509277 189.803268,499.308167 194.133133,503.462891 
	C194.114197,506.511444 194.114197,509.154877 194.114197,511.782959 
	C199.630234,511.870667 201.283203,510.962006 209.100601,504.167358 
	C211.077316,508.826569 212.628845,513.311890 214.512970,517.652954 
	C214.913986,518.576843 216.612198,519.578918 217.555298,519.444031 
	C218.476608,519.312195 219.715088,517.862732 219.893936,516.832031 
	C220.236191,514.859741 220.118271,512.747314 219.838760,510.742126 
	C219.457977,508.010437 218.747162,505.324738 218.473938,502.820618 
	C224.918747,514.473145 227.530670,526.854004 227.514023,539.692017 
	C227.506500,545.498596 229.127808,550.316833 233.532578,553.593872 
	C237.264999,556.370728 241.826431,558.033325 245.833084,560.394775 
	C244.813141,560.935852 243.981125,561.271118 242.751312,561.655762 
	C234.336685,560.506714 226.319839,559.308350 217.922089,558.082642 
	C216.516739,558.224182 215.492310,558.393005 215.548279,558.383789 
	C216.410492,561.736694 217.163513,564.664917 218.028946,568.030334 
	C220.563232,568.030334 223.349960,567.697693 226.017517,568.119202 
	C228.990219,568.588989 232.681381,568.917358 234.566467,570.801392 
	C237.197952,573.431519 239.255920,573.253113 241.999390,572.000000 
M207.953354,553.974487 
	C212.712021,553.595154 217.470688,553.215881 222.229370,552.836548 
	C222.214691,552.393555 222.200027,551.950562 222.185364,551.507568 
	C221.277481,551.289734 220.346634,551.140015 219.465530,550.842834 
	C214.620056,549.208374 209.609756,547.918274 204.998764,545.773193 
	C200.343613,543.607605 200.076981,541.700989 203.297134,537.823853 
	C205.335953,535.369019 207.886658,533.339233 210.207764,531.118835 
	C209.996170,530.719116 209.784592,530.319458 209.573013,529.919800 
	C199.745300,531.379883 189.917587,532.839966 179.571350,534.377136 
	C182.040100,543.194153 186.106049,550.119080 192.778717,555.989563 
	C193.877762,553.719177 194.828033,551.756042 195.919830,549.500610 
	C197.727371,550.355042 199.417389,551.153992 200.534409,552.397644 
	C199.118103,554.431763 197.413437,556.335266 196.407791,558.555420 
	C195.909180,559.656128 196.577698,562.538269 196.919662,562.572021 
	C200.113678,562.887085 203.351456,562.758667 206.576553,562.758667 
	C206.606384,562.335266 206.636215,561.911804 206.666031,561.488403 
	C205.590729,560.613953 204.515427,559.739441 202.522690,558.118896 
	C205.766922,558.803894 207.692459,559.210449 210.059525,559.710266 
	C208.808228,557.282471 207.926910,555.572510 207.953354,553.974487 
M369.826233,548.306824 
	C373.601379,548.306824 377.376526,548.306824 381.151642,548.306824 
	C382.851532,548.418152 384.775269,547.738342 386.672180,546.990601 
	C391.933838,544.916443 397.253967,542.965393 402.384644,540.604248 
	C403.510132,540.086243 404.712219,537.982666 404.573822,536.756470 
	C403.709778,529.101013 399.239990,526.526123 392.093658,529.237366 
	C391.008606,529.648987 389.956055,530.187866 388.838196,530.464844 
	C380.159790,532.615845 371.475983,533.945679 363.173828,529.189392 
	C359.750214,527.228027 357.454956,524.458313 358.020447,519.870728 
	C373.724091,519.870728 389.030762,519.805420 404.336090,519.922058 
	C407.669128,519.947449 409.356293,519.071167 409.034943,515.416016 
	C408.758606,512.272522 408.971985,509.088806 408.775360,505.934937 
	C408.152618,495.944855 403.919952,487.283783 394.867737,483.364258 
	C382.536621,478.024902 369.184692,476.807159 356.384979,482.310852 
	C351.870239,484.252136 346.899933,487.511688 344.524628,491.567352 
	C339.195984,500.665649 338.662964,511.134979 339.981812,521.540894 
	C341.293182,531.887634 345.696106,540.343628 355.671356,544.817017 
	C358.957214,546.290527 362.549255,547.081482 366.137482,548.831909 
	C367.131744,548.790100 368.126038,548.748291 369.826233,548.306824 
M334.189850,529.048035 
	C331.151764,528.777527 328.232574,528.834656 329.047668,533.166626 
	C329.643097,536.331177 330.320557,539.550964 331.571228,542.486267 
	C332.061890,543.637817 334.152893,544.291687 335.644928,544.730164 
	C336.150604,544.878784 337.745178,543.558716 337.671692,543.095642 
	C336.933014,538.442444 335.950470,533.827820 334.189850,529.048035 
M447.680969,480.907196 
	C445.909912,481.184174 444.138885,481.461151 442.367828,481.738129 
	C443.307983,483.099579 444.248108,484.461029 445.188263,485.822479 
	C446.096130,484.432556 447.003998,483.042664 447.680969,480.907196 
M390.544586,552.684875 
	C388.854767,552.526550 387.164948,552.368225 384.342468,552.103760 
	C387.120789,555.596619 388.790833,558.132324 390.544586,552.684875 
M363.606140,552.162903 
	C363.347717,552.801147 363.089294,553.439392 362.830872,554.077637 
	C363.373444,554.169006 363.916016,554.260376 364.458557,554.351746 
	C364.378143,553.678040 364.297760,553.004272 363.606140,552.162903 
M684.802063,476.402496 
	C684.797791,476.789520 684.793518,477.176575 684.789246,477.563599 
	C684.949829,477.565186 685.250122,477.577576 685.250916,477.566803 
	C685.280762,477.181702 685.282532,476.794434 684.802063,476.402496 
z"/>
<path fill="#FDF7FE" opacity="1.000000" stroke="none" 
	d="
M588.997620,548.160706 
	C587.845581,551.712036 585.707581,552.972290 581.826416,552.184387 
	C573.566711,550.507385 565.309509,548.998901 556.779907,551.387817 
	C554.439514,552.043274 551.484375,550.048218 548.820251,550.077942 
	C532.862305,550.255493 516.906860,550.667419 500.950806,551.009583 
	C500.288513,551.023865 499.405334,550.871765 499.000977,551.226135 
	C494.511139,555.160522 491.634277,549.033203 487.673004,549.305237 
	C487.217529,549.336487 486.204407,546.532959 486.080109,544.992981 
	C485.826263,541.847046 486.280457,538.633484 485.911591,535.510559 
	C485.617828,533.023376 484.400085,530.659912 483.842194,528.185242 
	C483.321136,525.873840 482.578827,523.412170 482.892639,521.149597 
	C483.925659,513.702393 482.042084,511.228760 474.050751,510.507629 
	C477.421631,500.751953 481.139404,491.403961 484.857178,482.055939 
	C488.530548,480.275024 487.965851,476.875824 488.507446,473.629364 
	C489.007263,470.633423 486.568024,465.990692 492.614075,465.462463 
	C493.158447,491.205597 493.246368,516.491028 493.198242,541.776245 
	C493.192169,544.968933 494.007019,546.930847 497.475586,546.929749 
	C509.941681,546.925659 522.407776,546.897583 534.873840,546.885376 
	C542.136414,546.878235 549.399048,546.884033 556.658325,546.884033 
	C556.658325,540.740051 556.658325,535.035339 556.658325,528.813293 
	C542.180603,528.813293 528.062988,528.813293 513.833008,528.574158 
	C513.278992,527.589172 512.837341,526.843262 512.312622,525.629272 
	C512.367065,505.063385 512.504517,484.965607 512.732788,464.791199 
	C512.929321,464.461548 512.861450,464.264984 512.494507,463.698547 
	C511.682861,460.654449 514.176025,456.557831 508.946472,455.685059 
	C507.595490,453.894348 506.297760,452.447174 505.000000,451.000000 
	C508.700378,450.395538 512.453552,449.084839 516.088440,449.356628 
	C521.191772,449.738342 522.736450,454.302216 522.792480,458.474243 
	C523.014221,474.987579 524.942749,491.572906 522.056458,507.994629 
	C521.076538,513.570312 527.778992,517.713379 533.400513,518.908020 
	C539.619202,520.229675 545.380676,518.281494 549.999817,514.164124 
	C551.968628,512.409241 552.824219,509.324371 553.968323,506.747345 
	C555.205139,503.961395 556.164062,501.053162 557.289490,498.216248 
	C558.181091,495.968719 559.607788,493.821960 559.974060,491.500610 
	C560.744812,486.615387 562.838806,483.949799 568.565186,485.000000 
	C569.025269,486.180725 569.050537,487.361450 569.047729,489.329895 
	C563.359436,498.996155 562.894348,508.793823 563.210693,518.981262 
	C563.514893,528.773438 568.563904,540.395081 580.270630,544.646118 
	C583.216553,545.715820 586.090576,546.983826 588.997620,548.160706 
M478.416534,509.483398 
	C478.416534,509.483398 478.522156,509.421387 478.416534,509.483398 
z"/>
<path fill="#FDF7FE" opacity="1.000000" stroke="none" 
	d="
M848.000854,483.748932 
	C848.858704,488.425568 849.702332,492.856140 850.589844,497.277893 
	C850.684021,497.747253 851.226929,498.159912 851.238770,498.607483 
	C851.500122,508.449646 851.939148,518.295349 851.838501,528.135193 
	C851.793518,532.538391 850.451111,536.912231 850.045227,541.331360 
	C849.299377,549.453918 846.560791,551.524109 838.433228,550.397949 
	C836.295898,550.101807 833.977783,551.209290 831.729065,551.592590 
	C829.233826,552.017883 826.660400,552.705078 826.782959,548.521484 
	C826.814087,547.458679 825.333008,546.423218 824.804810,545.258179 
	C823.460632,542.293823 821.120728,539.207458 821.264343,536.271851 
	C821.500061,531.452698 818.841858,529.211853 815.412476,528.539490 
	C811.238770,527.721313 806.759277,528.290039 802.438049,528.609314 
	C801.880798,528.650513 801.137451,530.770325 801.069702,531.960754 
	C800.880676,535.280334 801.017517,538.617676 800.996582,541.947815 
	C800.951172,549.175598 796.113708,551.995239 789.450806,548.322021 
	C792.187073,546.851379 794.645264,545.911194 797.249573,544.890015 
	C797.607056,544.478149 797.521423,544.224182 797.062378,543.698669 
	C797.042786,542.880981 797.099670,542.411743 797.349426,541.800659 
	C797.426575,541.126404 797.310913,540.594177 797.122253,539.710693 
	C797.104736,538.887146 797.160217,538.414734 797.351685,537.863831 
	C797.677979,537.467651 797.595459,537.225281 797.170288,536.590576 
	C797.110718,527.961243 796.867065,519.787476 797.256531,511.643921 
	C797.412231,508.387054 798.361816,504.839661 800.014771,502.056976 
	C802.752869,497.447357 807.540344,496.827637 812.685974,496.915710 
	C823.367737,497.098541 828.224609,501.810394 828.190613,512.670288 
	C828.168213,519.832214 828.147522,526.994141 828.133362,534.156067 
	C828.125305,538.256836 828.131897,542.357605 828.131897,546.368958 
	C834.863708,547.153748 840.755188,549.743896 846.851929,545.941711 
	C846.851929,531.408813 847.119629,516.754517 846.723511,502.118195 
	C846.559265,496.048431 844.713928,490.173187 839.363770,486.158264 
	C828.472534,477.985107 816.672852,478.548553 804.401733,482.140167 
	C801.798584,482.902039 798.831055,488.728912 796.109924,482.135468 
	C796.047119,481.983337 795.490173,481.997864 795.163635,481.997406 
	C789.612061,481.989685 784.060547,481.991882 778.767456,481.991882 
	C778.767456,497.782776 778.767456,512.901245 778.635010,528.113281 
	C778.320984,528.532593 778.406982,528.790100 778.837769,529.442566 
	C778.918335,535.270630 778.921509,540.635559 778.924683,546.000427 
	C774.015015,546.455872 773.133972,543.332153 772.988342,539.429749 
	C772.704590,531.826660 772.821045,524.165710 771.860840,516.645020 
	C771.152893,511.099518 768.998779,505.738617 767.287842,499.569977 
	C765.823425,500.516541 764.558655,500.967041 763.852783,501.859589 
	C761.784790,504.474579 760.187683,507.500854 757.914307,509.899994 
	C756.530640,511.360199 754.238403,511.959534 752.354309,512.945496 
	C751.638123,512.525085 750.921936,512.104675 750.205750,511.684235 
	C750.205750,520.195862 750.436523,528.717957 750.053345,537.212219 
	C749.949585,539.511047 747.987915,541.726013 746.439148,543.567261 
	C746.205811,541.920349 746.578979,540.687500 746.592468,539.450623 
	C746.695618,529.990723 746.606567,520.527161 746.826172,511.070496 
	C746.974060,504.699402 750.138794,501.088715 756.286072,499.749969 
	C760.649597,498.799683 765.043213,497.987610 769.847839,497.029175 
	C769.585327,492.781860 769.003174,488.187103 769.132507,483.612457 
	C769.208008,480.941345 768.003479,479.898254 765.997192,479.032104 
	C767.501709,478.407410 769.006226,477.782715 770.769470,477.050568 
	C770.773682,477.077332 770.655640,476.322235 770.316711,474.154175 
	C772.498291,476.075104 773.747131,477.174713 774.380554,477.732483 
	C776.797852,477.732483 778.754578,477.818268 780.701660,477.717346 
	C788.197998,477.328613 795.691589,476.886658 803.185364,476.449768 
	C805.315674,476.325562 807.460876,476.272339 809.566101,475.961884 
	C811.273071,475.710205 812.930298,475.121765 814.804810,474.340698 
	C815.444458,473.999054 815.888916,473.999359 816.920410,474.275391 
	C822.299316,475.956299 827.098816,477.115387 832.000000,475.001221 
	C832.333862,476.090210 832.667664,477.179199 833.143921,478.921753 
	C834.190857,480.049805 835.095459,480.524292 836.000000,480.998779 
	C836.750000,480.999176 837.500000,480.999603 838.667969,481.360016 
	C841.453552,486.328918 844.688965,484.911499 847.995117,483.003021 
	C847.995117,483.003021 847.999329,483.500305 848.000854,483.748932 
z"/>
<path fill="#07092E" opacity="1.000000" stroke="none" 
	d="
M285.091003,450.044189 
	C285.262878,449.078888 285.434723,448.113586 285.861450,445.717102 
	C294.387115,450.348389 303.060059,454.038788 310.601471,459.339081 
	C338.183594,478.724457 336.618286,518.589783 320.239929,538.283264 
	C319.676086,538.961304 319.794220,540.206482 319.354858,541.587891 
	C318.905457,542.254822 318.790649,542.557251 318.564056,542.886475 
	C318.357300,542.877258 318.000061,543.086365 317.647980,543.014038 
	C316.860657,543.117920 316.347504,543.199524 316.001770,543.484375 
	C309.128448,549.148071 303.668182,556.557190 294.474365,559.288574 
	C287.800812,561.271301 281.420593,564.241333 274.909576,566.771118 
	C274.481964,566.846008 274.054382,566.920837 272.913086,567.010986 
	C268.466339,567.736145 264.733246,568.446045 260.587463,569.079102 
	C258.781769,569.078247 257.388733,569.154297 255.995682,569.230347 
	C254.276245,569.161194 252.556793,569.092102 250.168228,569.010742 
	C249.332581,569.044739 249.166046,569.091125 248.568665,569.018433 
	C237.295258,567.784973 226.851669,565.567383 218.302994,558.109985 
	C226.319839,559.308350 234.336685,560.506714 243.176651,561.806641 
	C248.852982,561.582947 253.706192,561.257751 259.031433,560.985168 
	C262.748352,560.428833 266.005219,559.877319 269.236176,559.201782 
	C290.667877,554.720581 308.702393,535.219604 311.874390,512.892212 
	C314.634460,503.866425 313.589447,495.272736 310.742126,487.101074 
	C305.864349,473.102173 295.318298,462.545013 287.229980,450.494934 
	C286.920624,450.034058 285.756775,450.146698 285.014557,450.007996 
	C285.038025,450.023895 285.091003,450.044189 285.091003,450.044189 
z"/>
<path fill="#FDF7FE" opacity="1.000000" stroke="none" 
	d="
M217.922089,558.082642 
	C226.851669,565.567383 237.295258,567.784973 248.568787,569.234131 
	C248.999802,569.568726 249.003159,570.000000 249.003159,570.000000 
	C246.841995,570.482361 244.680832,570.964722 242.259521,571.723572 
	C239.255920,573.253113 237.197952,573.431519 234.566467,570.801392 
	C232.681381,568.917358 228.990219,568.588989 226.017517,568.119202 
	C223.349960,567.697693 220.563232,568.030334 218.028946,568.030334 
	C217.163513,564.664917 216.410492,561.736694 215.548279,558.383789 
	C215.492310,558.393005 216.516739,558.224182 217.922089,558.082642 
z"/>
<path fill="#FDF7FE" opacity="1.000000" stroke="none" 
	d="
M261.000153,569.155945 
	C264.733246,568.446045 268.466339,567.736145 272.599182,567.097412 
	C273.661255,570.187134 274.323578,573.205627 274.992981,576.612061 
	C272.610596,577.333374 270.221222,577.666687 267.212799,577.725159 
	C263.788910,575.860596 260.984039,574.270874 258.103607,572.638367 
	C259.261261,571.246521 260.130707,570.201233 261.000153,569.155945 
z"/>
<path fill="#FDF3FD" opacity="1.000000" stroke="none" 
	d="
M260.587463,569.079102 
	C260.130707,570.201233 259.261261,571.246521 258.103607,572.638367 
	C260.984039,574.270874 263.788910,575.860596 266.796875,577.725159 
	C266.178070,578.496582 265.060638,578.798523 264.583771,579.522400 
	C262.095917,583.299011 259.975983,583.725647 257.480072,579.434204 
	C256.946228,578.516357 254.954483,578.397217 253.604309,578.016846 
	C252.185715,577.617126 250.731049,577.345459 249.093796,576.972656 
	C250.404160,572.909241 256.920471,575.314575 255.995590,569.613831 
	C257.388733,569.154297 258.781769,569.078247 260.587463,569.079102 
z"/>
<path fill="#FDF3FD" opacity="1.000000" stroke="none" 
	d="
M504.555908,451.000000 
	C506.297760,452.447174 507.595490,453.894348 508.493652,455.792175 
	C504.062195,456.098541 500.030334,455.954285 496.047485,455.459900 
	C496.398102,453.739410 496.699646,452.369080 497.001221,450.998779 
	C499.371399,450.999176 501.741608,450.999603 504.555908,451.000000 
z"/>
<path fill="#FDF3FD" opacity="1.000000" stroke="none" 
	d="
M831.946045,474.614929 
	C827.098816,477.115387 822.299316,475.956299 817.253723,474.275574 
	C820.824585,473.337006 824.631897,472.478546 828.484985,472.137878 
	C829.550659,472.043610 830.752625,473.489441 831.946045,474.614929 
z"/>
<path fill="#FDF3FD" opacity="1.000000" stroke="none" 
	d="
M844.335205,560.570496 
	C841.125122,560.844116 838.146667,560.844116 833.910278,560.844116 
	C839.400513,555.786133 842.089966,555.979919 844.335205,560.570496 
z"/>
<path fill="#FDF3FD" opacity="1.000000" stroke="none" 
	d="
M847.789062,482.726013 
	C844.688965,484.911499 841.453552,486.328918 839.042969,481.360016 
	C841.861023,481.483002 844.722046,481.965973 847.789062,482.726013 
z"/>
<path fill="#FDF7FE" opacity="1.000000" stroke="none" 
	d="
M496.857971,450.711182 
	C496.699646,452.369080 496.398102,453.739410 495.721344,455.548645 
	C494.897095,455.959381 494.448090,455.931213 493.999054,455.903046 
	C493.996368,453.844666 493.993713,451.786316 493.995544,449.364563 
	C494.904938,449.475342 495.809845,449.949463 496.857971,450.711182 
z"/>
<path fill="#FDF3FD" opacity="1.000000" stroke="none" 
	d="
M559.541992,558.118225 
	C559.606995,561.208191 559.606995,561.208191 553.950562,559.794861 
	C556.549072,558.926086 557.867615,558.485229 559.541992,558.118225 
z"/>
<path fill="#FDF3FD" opacity="1.000000" stroke="none" 
	d="
M835.944580,480.655945 
	C835.095459,480.524292 834.190857,480.049805 833.144409,479.287048 
	C833.964661,479.436890 834.926941,479.875031 835.944580,480.655945 
z"/>
<path fill="#FDF3FD" opacity="1.000000" stroke="none" 
	d="
M462.383606,559.457642 
	C461.942139,559.343445 461.671661,559.065308 461.421997,558.769531 
	C461.415680,558.762024 461.638794,558.560791 461.754883,558.449951 
	C462.022339,558.730408 462.289795,559.010925 462.383606,559.457642 
z"/>
<path fill="#FDF3FD" opacity="1.000000" stroke="none" 
	d="
M249.206604,569.913330 
	C249.003159,570.000000 248.999802,569.568726 248.999664,569.353088 
	C249.166046,569.091125 249.332581,569.044739 249.743591,569.084778 
	C249.862411,569.448730 249.669739,569.667236 249.206604,569.913330 
z"/>
<path fill="#07092E" opacity="1.000000" stroke="none" 
	d="
M589.394531,548.095642 
	C586.090576,546.983826 583.216553,545.715820 580.270630,544.646118 
	C568.563904,540.395081 563.514893,528.773438 563.210693,518.981262 
	C562.894348,508.793823 563.359436,498.996155 569.092346,489.770569 
	C575.524353,484.939301 581.848267,480.425873 589.942566,479.537964 
	C602.144653,478.199402 613.950928,479.161591 624.265015,486.514954 
	C632.347107,492.276978 636.681213,509.189362 632.548279,518.075684 
	C632.043884,519.160095 629.665649,519.890015 628.147217,519.904907 
	C614.669250,520.037292 601.189453,519.971191 587.710144,519.964050 
	C585.893005,519.963074 584.075928,519.963989 582.159546,519.963989 
	C580.863281,524.916870 583.733582,527.397583 587.163574,529.243835 
	C595.654480,533.814209 604.480652,532.814880 613.321045,530.354004 
	C613.960205,530.176147 614.584778,529.942566 615.209229,529.715759 
	C624.349487,526.395752 625.088440,526.681458 629.861938,536.036133 
	C629.616699,537.511902 629.302856,538.320923 628.715576,539.073975 
	C628.251343,539.320679 628.060547,539.623352 627.914978,539.944702 
	C627.960205,539.963257 627.916809,539.875610 627.616577,539.993896 
	C627.489563,540.569397 627.662842,541.026550 627.663574,541.763672 
	C624.971252,543.029175 622.451538,544.014771 619.931824,545.000427 
	C614.104797,545.979797 608.305054,547.206238 602.441406,547.854919 
	C598.269348,548.316467 594.011230,547.999878 589.394531,548.095642 
M583.095947,501.951050 
	C582.626038,503.241699 582.156128,504.532379 581.598206,506.064911 
	C593.440002,506.064911 604.593506,506.064911 615.775085,506.064911 
	C614.874207,493.895477 592.969910,490.094421 583.095947,501.951050 
z"/>
<path fill="#07092E" opacity="1.000000" stroke="none" 
	d="
M366.001282,548.184448 
	C362.549255,547.081482 358.957214,546.290527 355.671356,544.817017 
	C345.696106,540.343628 341.293182,531.887634 339.981812,521.540894 
	C338.662964,511.134979 339.195984,500.665649 344.524628,491.567352 
	C346.899933,487.511688 351.870239,484.252136 356.384979,482.310852 
	C369.184692,476.807159 382.536621,478.024902 394.867737,483.364258 
	C403.919952,487.283783 408.152618,495.944855 408.775360,505.934937 
	C408.971985,509.088806 408.758606,512.272522 409.034943,515.416016 
	C409.356293,519.071167 407.669128,519.947449 404.336090,519.922058 
	C389.030762,519.805420 373.724091,519.870728 358.020447,519.870728 
	C357.454956,524.458313 359.750214,527.228027 363.173828,529.189392 
	C371.475983,533.945679 380.159790,532.615845 388.838196,530.464844 
	C389.956055,530.187866 391.008606,529.648987 392.093658,529.237366 
	C399.239990,526.526123 403.709778,529.101013 404.573822,536.756470 
	C404.712219,537.982666 403.510132,540.086243 402.384644,540.604248 
	C397.253967,542.965393 391.933838,544.916443 386.672180,546.990601 
	C384.775269,547.738342 382.851532,548.418152 381.151642,548.306824 
	C377.376526,548.306824 373.601379,548.306824 369.349365,548.152588 
	C367.915405,548.060425 366.958344,548.122437 366.001282,548.184448 
M368.551514,506.590759 
	C375.890564,506.590759 383.229645,506.590759 390.859253,506.590759 
	C387.818481,497.725586 381.370605,494.150696 371.475708,495.050446 
	C364.500092,495.684753 359.283478,500.030029 358.191345,506.586792 
	C361.367859,506.586792 364.471832,506.586792 368.551514,506.590759 
z"/>
<path fill="#07092E" opacity="1.000000" stroke="none" 
	d="
M676.000854,479.034271 
	C680.067810,480.367645 684.134705,481.701019 688.729919,483.407257 
	C691.020081,484.836090 692.781982,485.892059 694.608643,486.986877 
	C695.922913,482.039673 695.923035,482.048309 700.607910,481.986084 
	C702.405273,481.962219 704.201965,481.888855 705.998962,481.838013 
	C707.390442,481.902710 708.781860,481.967438 710.919189,482.199341 
	C711.997009,485.309265 712.587646,488.249268 712.618286,491.195068 
	C712.793152,508.000122 712.828369,524.806641 712.924561,541.612549 
	C712.959473,547.713684 711.062500,549.014465 705.149902,547.711365 
	C701.034180,546.804138 697.032288,546.023743 694.175720,542.583679 
	C694.464905,541.847778 694.754089,541.111877 695.599548,538.960449 
	C692.819031,540.391846 690.815796,540.845032 689.724609,542.094666 
	C686.605408,545.666870 682.452637,546.796570 678.174683,547.314392 
	C668.139282,548.528992 658.259399,548.929382 649.515198,542.104370 
	C643.307556,537.259155 639.707397,525.392456 642.939270,518.412415 
	C645.205383,513.518188 653.669189,510.787933 658.015503,513.832031 
	C659.091431,514.585632 659.633362,516.570557 659.810608,518.062012 
	C660.940613,527.571472 666.867859,532.422424 677.466919,532.302795 
	C687.732971,532.186890 693.250366,527.293640 694.044495,517.600342 
	C694.952759,506.515381 692.744446,501.714905 685.037598,498.021027 
	C678.221313,494.753967 668.027954,496.121124 663.108887,501.129639 
	C661.623657,502.641876 660.529846,504.538513 658.772461,506.913605 
	C656.057556,506.082855 652.975647,505.067657 649.852783,504.199677 
	C643.880981,502.539948 642.912964,491.842957 647.733276,487.321655 
	C654.041199,481.404968 661.890442,479.677155 670.992188,479.134949 
	C673.211975,479.100006 674.606445,479.067139 676.000854,479.034271 
z"/>
<path fill="#07092E" opacity="1.000000" stroke="none" 
	d="
M778.767456,528.019714 
	C778.767456,512.901245 778.767456,497.782776 778.767456,481.991882 
	C784.060547,481.991882 789.612061,481.989685 795.163635,481.997406 
	C795.490173,481.997864 796.047119,481.983337 796.109924,482.135468 
	C798.831055,488.728912 801.798584,482.902039 804.401733,482.140167 
	C816.672852,478.548553 828.472534,477.985107 839.363770,486.158264 
	C844.713928,490.173187 846.559265,496.048431 846.723511,502.118195 
	C847.119629,516.754517 846.851929,531.408813 846.851929,545.941711 
	C840.755188,549.743896 834.863708,547.153748 828.131897,546.368958 
	C828.131897,542.357605 828.125305,538.256836 828.133362,534.156067 
	C828.147522,526.994141 828.168213,519.832214 828.190613,512.670288 
	C828.224609,501.810394 823.367737,497.098541 812.685974,496.915710 
	C807.540344,496.827637 802.752869,497.447357 800.014771,502.056976 
	C798.361816,504.839661 797.412231,508.387054 797.256531,511.643921 
	C796.867065,519.787476 797.110718,527.961243 797.079956,536.808960 
	C797.059631,537.494934 797.215637,537.942322 797.215637,537.942322 
	C797.160217,538.414734 797.104736,538.887146 797.029175,540.018066 
	C797.058228,541.098633 797.107361,541.520569 797.156494,541.942566 
	C797.099670,542.411743 797.042786,542.880981 796.980713,543.926514 
	C796.975464,544.502930 797.103455,544.970947 797.103455,544.970947 
	C794.645264,545.911194 792.187073,546.851379 789.365112,547.972229 
	C785.802734,547.659912 782.604187,547.166931 779.165161,546.337158 
	C778.921509,540.635559 778.918335,535.270630 778.914185,529.203247 
	C778.864624,528.340332 778.816040,528.180054 778.767456,528.019714 
z"/>
<path fill="#07092E" opacity="1.000000" stroke="none" 
	d="
M246.021027,560.189026 
	C241.826431,558.033325 237.264999,556.370728 233.532578,553.593872 
	C229.127808,550.316833 227.506500,545.498596 227.514023,539.692017 
	C227.530670,526.854004 224.918747,514.473145 218.422028,502.481750 
	C215.773514,498.339447 213.313339,494.828308 211.199600,491.119751 
	C200.963654,473.160950 207.141861,450.600647 224.867752,439.963989 
	C233.913651,434.535889 243.785400,433.264343 254.330551,433.174835 
	C255.419693,433.364380 256.162476,433.414093 257.201202,433.657776 
	C262.913910,436.105774 268.330688,438.359833 273.747437,440.613892 
	C277.331268,443.937897 280.915070,447.261871 284.794952,450.315033 
	C285.091003,450.044189 285.038025,450.023895 284.750732,450.307617 
	C294.679962,465.880737 294.141235,481.133179 283.965576,497.087067 
	C279.778900,503.651154 277.243835,511.281647 274.091248,518.485657 
	C272.915558,521.172180 272.121033,524.025513 271.152710,526.802856 
	C271.018188,526.721619 270.883636,526.640442 270.749084,526.559265 
	C270.206848,532.038452 269.664581,537.517700 269.052490,543.400513 
	C269.721191,549.977234 265.819397,552.855652 260.614807,555.074036 
	C259.107971,555.865356 257.969513,556.653137 256.537720,557.619385 
	C252.836624,558.594849 249.428818,559.391968 246.021027,560.189026 
M269.136169,444.481873 
	C262.641541,442.667694 256.189789,439.520905 249.643616,439.310394 
	C234.968826,438.838593 222.732468,444.784271 216.064743,458.418488 
	C209.732208,471.367279 211.901672,483.696320 220.625351,495.397308 
	C224.404831,500.466705 226.951691,506.727570 228.900375,512.817749 
	C231.147324,519.840149 230.591080,520.048950 237.866226,520.250061 
	C239.488373,520.294922 241.118866,520.037537 243.606750,519.856689 
	C242.400604,511.169617 241.239166,502.804565 240.077728,494.439545 
	C240.866501,494.320312 241.655273,494.201111 242.444031,494.081909 
	C244.183365,502.598114 245.922699,511.114319 247.694901,519.791504 
	C249.177597,519.791504 250.916443,519.791504 252.885147,519.791504 
	C254.365036,512.163757 253.519287,504.124176 259.155701,497.816528 
	C258.396942,505.441193 257.638184,513.065918 256.854218,520.943848 
	C259.040894,520.943848 260.361694,520.911621 261.680481,520.949707 
	C266.409393,521.086060 269.772766,519.667358 269.942963,514.165955 
	C269.993439,512.534851 270.521240,510.918549 271.005402,508.696747 
	C273.505676,504.050537 275.629120,499.148132 278.579803,494.808136 
	C286.174469,483.637604 289.964569,471.792694 282.970734,459.350708 
	C279.873444,453.840637 274.120117,449.823578 269.136169,444.481873 
M255.775452,531.506897 
	C257.888184,531.133118 260.035645,530.888733 262.099670,530.333740 
	C263.211578,530.034729 264.180359,529.203491 265.213715,528.612305 
	C264.071869,527.956299 262.934540,526.743286 261.787384,526.733948 
	C253.853378,526.669312 245.917480,526.868713 237.981873,526.953186 
	C235.425003,526.980408 232.904709,527.707214 233.550140,530.614990 
	C233.805405,531.765076 236.855240,533.013855 238.607849,532.978760 
	C244.042847,532.869873 249.465927,532.166260 255.775452,531.506897 
M244.978546,536.104431 
	C241.517944,536.955566 238.057343,537.806763 233.084778,539.029846 
	C234.858566,540.411255 235.918289,541.923706 237.169968,542.104126 
	C248.530396,543.741150 262.271423,540.654175 263.763458,536.081909 
	C257.747681,536.081909 251.822159,536.081909 244.978546,536.104431 
M245.857315,546.223145 
	C242.869980,546.694641 239.882645,547.166138 236.895309,547.637634 
	C236.925415,548.246155 236.955521,548.854614 236.985626,549.463135 
	C244.365875,552.732849 251.941162,550.799194 259.870270,548.856140 
	C259.030060,547.368652 257.898773,546.019592 256.687225,545.943176 
	C253.403442,545.736206 250.085617,546.069336 245.857315,546.223145 
z"/>
<path fill="#07092E" opacity="1.000000" stroke="none" 
	d="
M493.754395,456.229126 
	C494.448090,455.931213 494.897095,455.959381 495.672302,455.898804 
	C500.030334,455.954285 504.062195,456.098541 508.546936,456.135681 
	C514.176025,456.557831 511.682861,460.654449 512.374756,463.887604 
	C512.380432,464.502991 512.642029,464.867859 512.641968,464.867859 
	C512.504517,484.965607 512.367065,505.063385 512.208618,525.964783 
	C512.773560,527.450073 513.359497,528.131653 513.945374,528.813293 
	C528.062988,528.813293 542.180603,528.813293 556.658325,528.813293 
	C556.658325,535.035339 556.658325,540.740051 556.658325,546.884033 
	C549.399048,546.884033 542.136414,546.878235 534.873840,546.885376 
	C522.407776,546.897583 509.941681,546.925659 497.475586,546.929749 
	C494.007019,546.930847 493.192169,544.968933 493.198242,541.776245 
	C493.246368,516.491028 493.158447,491.205597 493.017731,465.459839 
	C493.118652,462.184723 493.314178,459.369965 493.754395,456.229126 
z"/>
<path fill="#07092E" opacity="1.000000" stroke="none" 
	d="
M484.544434,482.037415 
	C481.139404,491.403961 477.421631,500.751953 473.601135,510.461578 
	C469.279327,520.436768 464.875671,529.974976 460.904266,539.689819 
	C458.126709,546.484253 456.916290,547.498657 449.921753,546.945679 
	C446.941132,546.710083 443.850922,547.270935 440.958710,546.708191 
	C438.949921,546.317383 436.169250,545.064087 435.480804,543.450500 
	C426.912170,523.367615 418.663696,503.148132 410.339050,482.961212 
	C410.292511,482.848358 410.333282,482.699463 410.333282,482.073608 
	C416.509216,482.073608 422.696381,482.014435 428.878113,482.170044 
	C429.462280,482.184784 430.218933,483.467987 430.545166,484.299713 
	C432.811584,490.078339 434.985382,495.893311 437.579315,502.252014 
	C440.795197,510.321564 443.620667,517.835754 446.739349,526.129761 
	C448.062714,523.727478 448.905060,522.549133 449.400757,521.239624 
	C451.947632,514.511536 454.405365,507.749695 456.894226,500.999695 
	C458.965881,496.387726 460.972046,491.744629 463.141815,487.179291 
	C463.992371,485.389740 465.209473,483.774384 467.093567,482.029358 
	C472.951324,481.928314 477.975128,481.877563 482.998962,481.826843 
	C483.409882,481.890839 483.820801,481.954865 484.544434,482.037415 
z"/>
<path fill="#07092E" opacity="1.000000" stroke="none" 
	d="
M765.619446,479.115051 
	C768.003479,479.898254 769.208008,480.941345 769.132507,483.612457 
	C769.003174,488.187103 769.585327,492.781860 769.847839,497.029175 
	C765.043213,497.987610 760.649597,498.799683 756.286072,499.749969 
	C750.138794,501.088715 746.974060,504.699402 746.826172,511.070496 
	C746.606567,520.527161 746.695618,529.990723 746.592468,539.450623 
	C746.578979,540.687500 746.205811,541.920349 746.076416,543.577271 
	C745.478210,544.744446 744.802856,545.489441 743.683533,546.590698 
	C742.086975,547.603882 740.934509,548.260864 739.781982,548.917786 
	C736.741577,546.573364 733.502686,546.041809 729.422119,547.499634 
	C728.556152,545.421936 728.039246,543.693237 728.032410,541.962585 
	C727.962585,524.342407 727.971069,506.721924 727.971436,489.101532 
	C727.971497,486.807312 728.049683,484.513123 728.091675,482.218903 
	C730.110107,482.139374 732.128540,482.059875 734.937500,481.976196 
	C739.738220,481.990784 744.417297,480.164795 746.026855,485.416687 
	C751.518738,483.364990 756.837097,481.378174 762.155396,479.391296 
	C763.184143,479.326843 764.212952,479.262421 765.619446,479.115051 
z"/>
<path fill="#F7F6E0" opacity="1.000000" stroke="none" 
	d="
M253.984192,433.035034 
	C243.785400,433.264343 233.913651,434.535889 224.867752,439.963989 
	C207.141861,450.600647 200.963654,473.160950 211.199600,491.119751 
	C213.313339,494.828308 215.773514,498.339447 218.125946,502.280457 
	C218.747162,505.324738 219.457977,508.010437 219.838760,510.742126 
	C220.118271,512.747314 220.236191,514.859741 219.893936,516.832031 
	C219.715088,517.862732 218.476608,519.312195 217.555298,519.444031 
	C216.612198,519.578918 214.913986,518.576843 214.512970,517.652954 
	C212.628845,513.311890 211.077316,508.826569 209.171478,503.775146 
	C208.330261,497.926758 206.682877,496.922607 202.115082,498.998688 
	C200.081116,499.923157 198.046417,500.845947 195.993317,501.403748 
	C194.612259,496.554047 193.249939,492.070038 192.146942,487.338074 
	C193.588455,487.021027 194.770615,486.951996 196.013428,487.244019 
	C196.671982,487.982452 197.269882,488.359833 197.867798,488.737213 
	C198.230499,487.454285 198.593216,486.171356 199.039551,484.495605 
	C199.650925,480.653595 198.636780,478.192261 194.879349,477.122986 
	C192.524811,473.938019 191.958969,471.077209 194.475647,467.987030 
	C195.157837,467.149384 195.491791,466.028107 196.329269,464.909546 
	C200.167969,462.957092 201.168900,460.404541 198.967041,456.917725 
	C198.975845,456.423340 199.056244,455.918030 198.982635,455.436218 
	C197.996460,448.982422 197.991119,448.983246 203.267670,446.380920 
	C207.293213,445.017395 209.368927,443.041931 208.269531,438.989014 
	C215.115829,433.810455 221.383133,427.640839 230.991928,426.272339 
	C233.050323,427.205139 235.020523,428.920013 235.759277,428.494904 
	C237.084793,427.732147 237.670181,425.683258 238.564880,424.171814 
	C242.681076,422.533356 246.797256,420.894897 251.035217,419.207947 
	C251.742905,420.768707 252.436737,422.298859 253.558838,424.223267 
	C254.005295,425.047150 254.023483,425.476807 253.993668,426.268555 
	C253.958511,428.765472 253.971344,430.900238 253.984192,433.035034 
z"/>
<path fill="#FDF7FE" opacity="1.000000" stroke="none" 
	d="
M727.906982,481.956726 
	C728.049683,484.513123 727.971497,486.807312 727.971436,489.101532 
	C727.971069,506.721924 727.962585,524.342407 728.032410,541.962585 
	C728.039246,543.693237 728.556152,545.421936 729.027466,547.533813 
	C728.887756,547.939636 728.528687,547.887329 728.230225,547.998291 
	C724.269043,549.471252 720.208618,551.352966 718.865112,543.495483 
	C718.432251,544.040649 717.999390,544.585876 717.566589,545.131042 
	C717.373047,546.931152 717.201843,548.733948 716.981079,550.530640 
	C716.595886,553.666809 715.300354,555.456665 711.707703,554.426636 
	C708.160461,553.409607 704.545044,552.630310 701.178955,552.705994 
	C698.842285,553.151855 696.506042,553.965515 694.168762,553.968445 
	C688.998657,553.974854 684.000366,553.943054 679.334290,556.926086 
	C677.790466,557.913086 675.305481,557.428040 673.240662,556.965149 
	C679.424561,553.892212 685.597168,551.569336 689.575073,545.644897 
	C690.383606,544.440796 692.351379,544.014954 693.980225,542.906982 
	C697.032288,546.023743 701.034180,546.804138 705.149902,547.711365 
	C711.062500,549.014465 712.959473,547.713684 712.924561,541.612549 
	C712.828369,524.806641 712.793152,508.000122 712.618286,491.195068 
	C712.587646,488.249268 711.997009,485.309265 711.333679,482.136963 
	C713.210083,477.684082 715.335327,481.174774 716.662903,482.386017 
	C721.628662,486.916656 721.494324,487.046936 726.442627,481.733765 
	C726.647278,481.514038 727.285828,481.698456 727.906982,481.956726 
M722.417786,488.483612 
	C722.417786,488.483612 722.522400,488.422424 722.417786,488.483612 
z"/>
<path fill="#07092E" opacity="1.000000" stroke="none" 
	d="
M201.107422,551.952881 
	C199.417389,551.153992 197.727371,550.355042 195.919830,549.500610 
	C194.828033,551.756042 193.877762,553.719177 192.778717,555.989563 
	C186.106049,550.119080 182.040100,543.194153 179.571350,534.377136 
	C189.917587,532.839966 199.745300,531.379883 209.573013,529.919800 
	C209.784592,530.319458 209.996170,530.719116 210.207764,531.118835 
	C207.886658,533.339233 205.335953,535.369019 203.297134,537.823853 
	C200.076981,541.700989 200.343613,543.607605 204.998764,545.773193 
	C209.609756,547.918274 214.620056,549.208374 219.465530,550.842834 
	C220.346634,551.140015 221.277481,551.289734 222.185364,551.507568 
	C222.200027,551.950562 222.214691,552.393555 222.229370,552.836548 
	C217.470688,553.215881 212.712021,553.595154 207.348358,553.571533 
	C204.864716,552.763367 202.986069,552.358154 201.107422,551.952881 
z"/>
<path fill="#FDF7FE" opacity="1.000000" stroke="none" 
	d="
M275.094238,567.133423 
	C281.420593,564.241333 287.800812,561.271301 294.474365,559.288574 
	C303.668182,556.557190 309.128448,549.148071 316.001770,543.484375 
	C316.347504,543.199524 316.860657,543.117920 317.690674,543.297974 
	C318.533173,543.891907 318.980896,544.129639 319.428650,544.367371 
	C319.209381,543.876770 318.990082,543.386230 318.770813,542.895630 
	C318.790649,542.557251 318.905457,542.254822 319.350189,541.917114 
	C321.368500,541.085632 323.108856,540.178101 324.956757,539.639587 
	C325.670746,539.431519 326.628662,540.060547 327.475464,540.308167 
	C327.111237,541.106079 326.964050,542.233093 326.343506,542.642395 
	C324.171600,544.075012 321.836456,545.260071 319.574280,546.532959 
	C321.322510,554.389648 320.178314,555.627625 311.716370,556.094055 
	C309.770294,556.201233 306.610626,557.066589 306.210175,558.298401 
	C304.845795,562.495361 301.952789,563.293884 298.307587,563.385681 
	C294.149750,563.490417 290.888763,565.357422 287.258850,567.364136 
	C284.181702,569.065247 279.339813,567.574158 275.094238,567.133423 
z"/>
<path fill="#FDF7FE" opacity="1.000000" stroke="none" 
	d="
M628.989014,539.129944 
	C629.302856,538.320923 629.616699,537.511902 630.007202,536.351685 
	C630.846802,535.705566 631.606140,535.170227 632.372986,535.159302 
	C635.003235,535.121643 637.636108,535.267883 640.267944,535.343933 
	C639.981506,537.776184 639.694580,540.208313 639.408875,542.640686 
	C639.352783,543.118286 639.301270,543.596436 639.282776,543.761353 
	C643.856995,544.667603 648.329468,545.553650 652.802002,546.439697 
	C652.885193,546.927979 652.968384,547.416199 653.051575,547.904419 
	C651.057983,548.447571 649.076538,549.400818 647.068665,549.459961 
	C639.964844,549.669006 632.839111,549.324585 625.747742,549.692444 
	C622.020630,549.885681 621.844788,547.117554 620.259399,545.044861 
	C622.451538,544.014771 624.971252,543.029175 627.701294,541.362366 
	C627.913330,540.412720 627.915039,540.144165 627.916809,539.875610 
	C627.916809,539.875610 627.960205,539.963257 628.145386,539.882019 
	C628.628845,539.654419 628.848328,539.430847 628.989014,539.129944 
z"/>
<path fill="#FDF7FE" opacity="1.000000" stroke="none" 
	d="
M456.572571,500.942871 
	C454.405365,507.749695 451.947632,514.511536 449.400757,521.239624 
	C448.905060,522.549133 448.062714,523.727478 446.739349,526.129761 
	C443.620667,517.835754 440.795197,510.321564 437.902924,502.433990 
	C438.219696,501.201660 438.641815,500.357452 438.977081,499.480042 
	C439.396210,498.383148 439.743958,497.258942 440.122528,496.146545 
	C441.336914,496.727356 442.567444,497.278473 443.748962,497.919800 
	C443.933319,498.019867 443.844238,498.551849 443.967102,498.848694 
	C444.946899,501.216003 445.947296,503.574768 446.941345,505.936157 
	C448.736206,504.147369 450.367249,502.127350 452.406158,500.683136 
	C453.227661,500.101227 454.942627,500.780670 456.572571,500.942871 
z"/>
<path fill="#F7F6E0" opacity="1.000000" stroke="none" 
	d="
M273.814667,440.197327 
	C268.330688,438.359833 262.913910,436.105774 257.251770,433.279755 
	C257.670624,431.398804 258.334839,430.089783 259.127808,428.523865 
	C259.822937,427.509583 260.389313,426.752258 260.955688,425.994934 
	C264.560089,424.694275 272.231750,427.494110 274.572693,431.222412 
	C274.995178,433.009369 275.042297,434.401489 275.089447,435.793610 
	C274.686920,437.122681 274.284424,438.451721 273.814667,440.197327 
z"/>
<path fill="#07092E" opacity="1.000000" stroke="none" 
	d="
M195.952789,486.882935 
	C194.770615,486.951996 193.588455,487.021027 191.737762,487.455994 
	C189.379868,487.935364 187.690491,488.048828 186.001099,488.162323 
	C185.003815,485.720978 184.006546,483.279663 183.398376,480.284637 
	C186.803879,475.610382 191.022491,477.431030 194.883759,477.485626 
	C198.636780,478.192261 199.650925,480.653595 198.729797,484.553345 
	C197.541885,485.630249 196.747345,486.256622 195.952789,486.882935 
z"/>
<path fill="#07092E" opacity="1.000000" stroke="none" 
	d="
M196.012054,501.769531 
	C198.046417,500.845947 200.081116,499.923157 202.115082,498.998688 
	C206.682877,496.922607 208.330261,497.926758 208.865036,503.549805 
	C201.283203,510.962006 199.630234,511.870667 194.114197,511.782959 
	C194.114197,509.154877 194.114197,506.511444 194.408081,503.374390 
	C195.138657,502.510345 195.575363,502.139923 196.012054,501.769531 
z"/>
<path fill="#07092E" opacity="1.000000" stroke="none" 
	d="
M198.612000,456.867493 
	C201.168900,460.404541 200.167969,462.957092 195.949951,464.846741 
	C193.818344,464.663574 192.409729,464.415741 191.001099,464.167908 
	C190.264862,463.761597 189.528625,463.355316 188.319946,462.623962 
	C186.506943,460.866241 185.166367,459.433624 183.825806,458.001007 
	C187.130997,451.352417 189.178741,452.113403 198.612000,456.867493 
z"/>
<path fill="#07092E" opacity="1.000000" stroke="none" 
	d="
M208.078064,438.690247 
	C209.368927,443.041931 207.293213,445.017395 203.328033,446.049286 
	C200.875961,444.110962 198.746307,442.152405 196.702042,440.108429 
	C194.848541,438.255219 194.512634,435.727783 196.530304,434.328156 
	C198.161530,433.196655 201.101257,432.621338 202.842606,433.326111 
	C204.874466,434.148438 206.234848,436.629913 208.078064,438.690247 
z"/>
<path fill="#FDF7FE" opacity="1.000000" stroke="none" 
	d="
M761.937134,479.054535 
	C756.837097,481.378174 751.518738,483.364990 746.026855,485.416687 
	C744.417297,480.164795 739.738220,481.990784 735.364502,481.900604 
	C735.986633,480.620697 736.889343,478.453491 737.971252,478.359955 
	C744.815308,477.768127 751.697571,477.573212 758.571106,477.418091 
	C759.610107,477.394623 760.669128,478.262268 761.937134,479.054535 
z"/>
<path fill="#FDF7FE" opacity="1.000000" stroke="none" 
	d="
M334.613220,529.125244 
	C335.950470,533.827820 336.933014,538.442444 337.671692,543.095642 
	C337.745178,543.558716 336.150604,544.878784 335.644928,544.730164 
	C334.152893,544.291687 332.061890,543.637817 331.571228,542.486267 
	C330.320557,539.550964 329.643097,536.331177 329.047668,533.166626 
	C328.232574,528.834656 331.151764,528.777527 334.613220,529.125244 
z"/>
<path fill="#FDF7FE" opacity="1.000000" stroke="none" 
	d="
M200.820923,552.175293 
	C202.986069,552.358154 204.864716,552.763367 206.894470,553.515564 
	C207.926910,555.572510 208.808228,557.282471 210.059525,559.710266 
	C207.692459,559.210449 205.766922,558.803894 202.522690,558.118896 
	C204.515427,559.739441 205.590729,560.613953 206.666031,561.488403 
	C206.636215,561.911804 206.606384,562.335266 206.576553,562.758667 
	C203.351456,562.758667 200.113678,562.887085 196.919662,562.572021 
	C196.577698,562.538269 195.909180,559.656128 196.407791,558.555420 
	C197.413437,556.335266 199.118103,554.431763 200.820923,552.175293 
M199.582047,560.515991 
	C199.582047,560.515991 199.477463,560.576965 199.582047,560.515991 
z"/>
<path fill="#07092E" opacity="1.000000" stroke="none" 
	d="
M238.325470,423.875702 
	C237.670181,425.683258 237.084793,427.732147 235.759277,428.494904 
	C235.020523,428.920013 233.050323,427.205139 231.376282,426.227722 
	C230.781723,424.146942 229.892685,422.170502 230.268494,420.474335 
	C230.631821,418.834503 232.298035,417.483368 233.391968,416.005402 
	C234.769119,417.094849 236.478760,417.959503 237.416214,419.346161 
	C238.140991,420.418274 237.898514,422.144287 238.325470,423.875702 
z"/>
<path fill="#07092E" opacity="1.000000" stroke="none" 
	d="
M275.387177,435.871643 
	C275.042297,434.401489 274.995178,433.009369 274.931335,431.297424 
	C275.838837,429.629425 276.634949,428.164093 277.727173,426.969482 
	C278.629028,425.983093 280.081573,424.479736 280.935944,424.684326 
	C282.672974,425.100311 284.340698,426.348907 285.624237,427.658783 
	C285.882141,427.921967 284.580841,430.355499 283.519287,431.139893 
	C281.063873,432.954285 278.314880,434.371429 275.387177,435.871643 
z"/>
<path fill="#FDF7FE" opacity="1.000000" stroke="none" 
	d="
M705.943726,481.473083 
	C704.201965,481.888855 702.405273,481.962219 700.607910,481.986084 
	C695.923035,482.048309 695.922913,482.039673 694.608643,486.986877 
	C692.781982,485.892059 691.020081,484.836090 689.100464,483.471924 
	C688.802795,481.701416 688.662781,480.239105 688.453552,478.053497 
	C693.146545,478.053497 697.735840,477.835754 702.279785,478.193512 
	C703.551331,478.293610 704.689209,480.089935 705.943726,481.473083 
z"/>
<path fill="#07092E" opacity="1.000000" stroke="none" 
	d="
M260.957031,425.587769 
	C260.389313,426.752258 259.822937,427.509583 258.740662,428.528748 
	C256.830383,427.829224 255.436020,426.867828 254.041656,425.906464 
	C254.023483,425.476807 254.005295,425.047150 253.912277,424.303589 
	C253.881393,422.830170 253.860062,421.663635 253.983063,420.512543 
	C254.228531,418.215454 254.450333,415.612793 257.707123,416.098846 
	C260.812805,416.562317 262.899323,418.145844 261.748535,421.838287 
	C261.408722,422.928558 261.217621,424.065216 260.957031,425.587769 
z"/>
<path fill="#FDF7FE" opacity="1.000000" stroke="none" 
	d="
M195.993317,501.403778 
	C195.575363,502.139923 195.138657,502.510345 194.427002,502.969269 
	C189.803268,499.308167 185.539536,495.509277 186.000763,488.568909 
	C187.690491,488.048828 189.379868,487.935364 191.478439,487.703979 
	C193.249939,492.070038 194.612259,496.554047 195.993317,501.403778 
z"/>
<path fill="#FDF7FE" opacity="1.000000" stroke="none" 
	d="
M191.000671,464.558807 
	C192.409729,464.415741 193.818344,464.663574 195.606293,464.974243 
	C195.491791,466.028107 195.157837,467.149384 194.475647,467.987030 
	C191.958969,471.077209 192.524811,473.938019 194.879349,477.122986 
	C191.022491,477.431030 186.803879,475.610382 183.450073,479.886719 
	C183.332809,478.992767 183.277634,477.765778 183.820053,476.923706 
	C186.343094,473.007294 191.449478,470.660492 191.000671,464.558807 
z"/>
<path fill="#FDF7FE" opacity="1.000000" stroke="none" 
	d="
M482.978363,481.423340 
	C477.975128,481.877563 472.951324,481.928314 467.464233,481.917145 
	C467.785645,480.931580 468.522339,479.264526 469.363098,479.210266 
	C473.446350,478.946838 477.559753,479.056580 481.655579,479.213959 
	C482.112061,479.231506 482.524750,480.390289 482.978363,481.423340 
z"/>
<path fill="#F7F6E0" opacity="1.000000" stroke="none" 
	d="
M245.833069,560.394775 
	C249.428818,559.391968 252.836624,558.594849 256.617401,557.926086 
	C257.513397,559.013794 258.036407,559.973206 258.559387,560.932617 
	C253.706192,561.257751 248.852982,561.582947 243.574432,561.757263 
	C243.981125,561.271118 244.813141,560.935852 245.833069,560.394775 
z"/>
<path fill="#FFEFFF" opacity="1.000000" stroke="none" 
	d="
M447.796387,481.279968 
	C447.003998,483.042664 446.096130,484.432556 445.188263,485.822479 
	C444.248108,484.461029 443.307983,483.099579 442.367828,481.738098 
	C444.138885,481.461151 445.909912,481.184174 447.796387,481.279968 
z"/>
<path fill="#FDF7FE" opacity="1.000000" stroke="none" 
	d="
M183.468658,458.011658 
	C185.166367,459.433624 186.506943,460.866241 187.982407,462.627380 
	C185.383392,465.740051 183.162674,461.969055 179.118500,462.636322 
	C180.933090,460.539520 182.022308,459.280914 183.468658,458.011658 
z"/>
<path fill="#FDF7FE" opacity="1.000000" stroke="none" 
	d="
M675.998779,478.628540 
	C674.606445,479.067139 673.211975,479.100006 671.408630,479.035828 
	C670.797729,477.844391 670.595764,476.750000 670.337280,475.349365 
	C673.034790,475.168732 675.999939,473.619385 675.998779,478.628540 
z"/>
<path fill="#FDF7FE" opacity="1.000000" stroke="none" 
	d="
M390.679321,553.035034 
	C388.790833,558.132324 387.120789,555.596619 384.342468,552.103760 
	C387.164948,552.368225 388.854767,552.526550 390.679321,553.035034 
z"/>
<path fill="#FDF7FE" opacity="1.000000" stroke="none" 
	d="
M363.911743,552.246704 
	C364.297760,553.004272 364.378143,553.678040 364.458557,554.351746 
	C363.916016,554.260376 363.373444,554.169006 362.830872,554.077637 
	C363.089294,553.439392 363.347717,552.801147 363.911743,552.246704 
z"/>
<path fill="#FDF7FE" opacity="1.000000" stroke="none" 
	d="
M740.181946,548.939209 
	C740.934509,548.260864 742.086975,547.603882 743.585510,546.882690 
	C742.815002,547.532471 741.698425,548.246521 740.181946,548.939209 
z"/>
<path fill="#FDF7FE" opacity="1.000000" stroke="none" 
	d="
M366.069397,548.508179 
	C366.958344,548.122437 367.915405,548.060425 368.996399,548.352417 
	C368.126038,548.748291 367.131744,548.790100 366.069397,548.508179 
z"/>
<path fill="#FDF7FE" opacity="1.000000" stroke="none" 
	d="
M685.045166,476.404968 
	C685.282532,476.794434 685.280762,477.181702 685.250916,477.566803 
	C685.250122,477.577576 684.949829,477.565186 684.789246,477.563599 
	C684.793518,477.176575 684.797791,476.789520 685.045166,476.404968 
z"/>
<path fill="#F7F6E0" opacity="1.000000" stroke="none" 
	d="
M513.833008,528.574158 
	C513.359497,528.131653 512.773560,527.450073 512.291626,526.432922 
	C512.837341,526.843262 513.278992,527.589172 513.833008,528.574158 
z"/>
<path fill="#FDF3FD" opacity="1.000000" stroke="none" 
	d="
M478.469360,509.452393 
	C478.522156,509.421387 478.416534,509.483398 478.469360,509.452393 
z"/>
<path fill="#F7F6E0" opacity="1.000000" stroke="none" 
	d="
M512.732788,464.791199 
	C512.642029,464.867859 512.380432,464.502991 512.500244,464.313965 
	C512.861450,464.264984 512.929321,464.461548 512.732788,464.791199 
z"/>
<path fill="#F7F6E0" opacity="1.000000" stroke="none" 
	d="
M797.349365,541.800659 
	C797.107361,541.520569 797.058228,541.098633 797.102173,540.369263 
	C797.310913,540.594177 797.426575,541.126404 797.349365,541.800659 
z"/>
<path fill="#FDF3FD" opacity="1.000000" stroke="none" 
	d="
M778.635010,528.113281 
	C778.816040,528.180054 778.864624,528.340332 778.836792,528.739990 
	C778.406982,528.790100 778.320984,528.532593 778.635010,528.113281 
z"/>
<path fill="#F7F6E0" opacity="1.000000" stroke="none" 
	d="
M797.249573,544.890015 
	C797.103455,544.970947 796.975464,544.502930 797.057129,544.275024 
	C797.521423,544.224182 797.607056,544.478149 797.249573,544.890015 
z"/>
<path fill="#F7F6E0" opacity="1.000000" stroke="none" 
	d="
M797.351685,537.863831 
	C797.215637,537.942322 797.059631,537.494934 797.149902,537.276611 
	C797.595459,537.225281 797.677979,537.467651 797.351685,537.863831 
z"/>
<path fill="#FDF3FD" opacity="1.000000" stroke="none" 
	d="
M269.122314,542.996948 
	C269.664581,537.517700 270.206848,532.038452 270.749084,526.559265 
	C270.883636,526.640442 271.018188,526.721619 271.152710,526.802856 
	C272.121033,524.025513 272.915558,521.172180 274.091248,518.485657 
	C277.243835,511.281647 279.778900,503.651154 283.965576,497.087067 
	C294.141235,481.133179 294.679962,465.880737 284.727295,450.291718 
	C285.756775,450.146698 286.920624,450.034058 287.229980,450.494934 
	C295.318298,462.545013 305.864349,473.102173 310.742126,487.101074 
	C313.589447,495.272736 314.634460,503.866425 311.607483,513.009949 
	C303.690033,523.764526 293.576691,529.465210 280.631897,531.013184 
	C273.248260,531.085571 272.543579,531.907349 271.873779,538.728149 
	C271.726624,540.226685 270.078979,541.577881 269.122314,542.996948 
z"/>
<path fill="#9D20ED" opacity="1.000000" stroke="none" 
	d="
M281.059265,531.023743 
	C293.576691,529.465210 303.690033,523.764526 311.446350,513.424866 
	C308.702393,535.219604 290.667877,554.720581 269.236176,559.201782 
	C266.005219,559.877319 262.748352,560.428833 259.031433,560.985107 
	C258.036407,559.973206 257.513397,559.013794 256.910706,557.747681 
	C257.969513,556.653137 259.107971,555.865356 260.894836,555.276428 
	C263.470062,554.911011 266.388580,554.936279 267.139771,553.672913 
	C269.493317,549.714661 272.302765,545.350952 272.577332,540.995605 
	C272.965302,534.841125 274.945404,531.581177 281.059265,531.023743 
z"/>
<path fill="#FDF3FD" opacity="1.000000" stroke="none" 
	d="
M318.564056,542.886475 
	C318.990082,543.386230 319.209381,543.876770 319.428650,544.367371 
	C318.980896,544.129639 318.533173,543.891907 318.042755,543.370239 
	C318.000061,543.086365 318.357300,542.877258 318.564056,542.886475 
z"/>
<path fill="#FDF3FD" opacity="1.000000" stroke="none" 
	d="
M583.306885,501.630157 
	C592.969910,490.094421 614.874207,493.895477 615.775085,506.064911 
	C604.593506,506.064911 593.440002,506.064911 581.598206,506.064911 
	C582.156128,504.532379 582.626038,503.241699 583.306885,501.630157 
z"/>
<path fill="#FDF3FD" opacity="1.000000" stroke="none" 
	d="
M627.616577,539.993896 
	C627.915039,540.144165 627.913330,540.412720 627.873840,541.082520 
	C627.662842,541.026550 627.489563,540.569397 627.616577,539.993896 
z"/>
<path fill="#FDF3FD" opacity="1.000000" stroke="none" 
	d="
M628.715576,539.073975 
	C628.848328,539.430847 628.628845,539.654419 628.100159,539.863403 
	C628.060547,539.623352 628.251343,539.320679 628.715576,539.073975 
z"/>
<path fill="#FDF3FD" opacity="1.000000" stroke="none" 
	d="
M368.063660,506.588776 
	C364.471832,506.586792 361.367859,506.586792 358.191345,506.586792 
	C359.283478,500.030029 364.500092,495.684753 371.475708,495.050446 
	C381.370605,494.150696 387.818481,497.725586 390.859253,506.590759 
	C383.229645,506.590759 375.890564,506.590759 368.063660,506.588776 
z"/>
<path fill="#F8AD0D" opacity="1.000000" stroke="none" 
	d="
M270.830322,509.295441 
	C270.521240,510.918549 269.993439,512.534851 269.942963,514.165955 
	C269.772766,519.667358 266.409393,521.086060 261.680481,520.949707 
	C260.361694,520.911621 259.040894,520.943848 256.854218,520.943848 
	C257.638184,513.065918 258.396942,505.441193 259.155701,497.816528 
	C253.519287,504.124176 254.365036,512.163757 252.885147,519.791504 
	C250.916443,519.791504 249.177597,519.791504 247.694901,519.791504 
	C245.922699,511.114319 244.183365,502.598114 242.444031,494.081909 
	C241.655273,494.201111 240.866501,494.320312 240.077728,494.439545 
	C241.239166,502.804565 242.400604,511.169617 243.606750,519.856689 
	C241.118866,520.037537 239.488373,520.294922 237.866226,520.250061 
	C230.591080,520.048950 231.147324,519.840149 228.900375,512.817749 
	C226.951691,506.727570 224.404831,500.466705 220.625351,495.397308 
	C211.901672,483.696320 209.732208,471.367279 216.064743,458.418488 
	C222.732468,444.784271 234.968826,438.838593 249.643616,439.310394 
	C256.189789,439.520905 262.641541,442.667694 269.327026,445.174316 
	C268.546661,448.845184 269.064209,451.276672 271.269867,453.764160 
	C283.669006,467.747467 281.168457,484.783630 268.651398,498.412476 
	C266.944794,500.270660 265.807617,502.651855 263.795929,505.723755 
	C266.951385,505.279022 268.827057,505.014679 270.830322,504.732330 
	C270.830322,506.446289 270.830322,507.870850 270.830322,509.295441 
M246.147141,482.214539 
	C244.358932,482.040283 242.570709,481.866058 240.782501,481.691803 
	C240.784210,482.931366 240.291229,484.622742 240.909225,485.299347 
	C241.734375,486.202698 243.774414,487.022736 244.646957,486.586639 
	C245.650970,486.084839 245.950287,484.173035 246.147141,482.214539 
z"/>
<path fill="#F7F6E0" opacity="1.000000" stroke="none" 
	d="
M270.917847,508.996094 
	C270.830322,507.870850 270.830322,506.446289 270.830322,504.732330 
	C268.827057,505.014679 266.951385,505.279022 263.795929,505.723755 
	C265.807617,502.651855 266.944794,500.270660 268.651398,498.412476 
	C281.168457,484.783630 283.669006,467.747467 271.269867,453.764160 
	C269.064209,451.276672 268.546661,448.845184 269.545166,445.497772 
	C274.120117,449.823578 279.873444,453.840637 282.970734,459.350708 
	C289.964569,471.792694 286.174469,483.637604 278.579803,494.808136 
	C275.629120,499.148132 273.505676,504.050537 270.917847,508.996094 
z"/>
<path fill="#9D20ED" opacity="1.000000" stroke="none" 
	d="
M255.334534,531.600159 
	C249.465927,532.166260 244.042847,532.869873 238.607849,532.978760 
	C236.855240,533.013855 233.805405,531.765076 233.550140,530.614990 
	C232.904709,527.707214 235.425003,526.980408 237.981873,526.953186 
	C245.917480,526.868713 253.853378,526.669312 261.787384,526.733948 
	C262.934540,526.743286 264.071869,527.956299 265.213745,528.612305 
	C264.180359,529.203491 263.211578,530.034729 262.099670,530.333740 
	C260.035645,530.888733 257.888184,531.133118 255.334534,531.600159 
z"/>
<path fill="#9D20ED" opacity="1.000000" stroke="none" 
	d="
M245.437592,536.093140 
	C251.822159,536.081909 257.747681,536.081909 263.763458,536.081909 
	C262.271423,540.654175 248.530396,543.741150 237.169968,542.104126 
	C235.918289,541.923706 234.858566,540.411255 233.084778,539.029846 
	C238.057343,537.806763 241.517944,536.955566 245.437592,536.093140 
z"/>
<path fill="#9D20ED" opacity="1.000000" stroke="none" 
	d="
M246.319305,546.205688 
	C250.085617,546.069336 253.403442,545.736206 256.687225,545.943176 
	C257.898773,546.019592 259.030060,547.368652 259.870270,548.856140 
	C251.941162,550.799194 244.365875,552.732849 236.985626,549.463135 
	C236.955521,548.854614 236.925415,548.246155 236.895309,547.637634 
	C239.882645,547.166138 242.869980,546.694641 246.319305,546.205688 
z"/>
<path fill="#FFEFFF" opacity="1.000000" stroke="none" 
	d="
M280.631897,531.013184 
	C274.945404,531.581177 272.965302,534.841125 272.577332,540.995605 
	C272.302765,545.350952 269.493317,549.714661 267.139771,553.672913 
	C266.388580,554.936279 263.470062,554.911011 261.263184,555.272949 
	C265.819397,552.855652 269.721191,549.977234 269.052490,543.400513 
	C270.078979,541.577881 271.726624,540.226685 271.873779,538.728149 
	C272.543579,531.907349 273.248260,531.085571 280.631897,531.013184 
z"/>
<path fill="#FDF3FD" opacity="1.000000" stroke="none" 
	d="
M253.993668,426.268555 
	C255.436020,426.867828 256.830383,427.829224 258.611877,428.785675 
	C258.334839,430.089783 257.670624,431.398804 256.955811,433.085815 
	C256.162476,433.414093 255.419693,433.364380 254.330551,433.174835 
	C253.971344,430.900238 253.958511,428.765472 253.993668,426.268555 
z"/>
<path fill="#FDF7FE" opacity="1.000000" stroke="none" 
	d="
M196.013428,487.244019 
	C196.747345,486.256622 197.541885,485.630249 198.646179,484.946167 
	C198.593216,486.171356 198.230499,487.454285 197.867798,488.737213 
	C197.269882,488.359833 196.671982,487.982452 196.013428,487.244019 
z"/>
<path fill="#FDF3FD" opacity="1.000000" stroke="none" 
	d="
M722.470093,488.453003 
	C722.522400,488.422424 722.417786,488.483612 722.470093,488.453003 
z"/>
<path fill="#FDF3FD" opacity="1.000000" stroke="none" 
	d="
M199.529755,560.546509 
	C199.477463,560.576965 199.582047,560.515991 199.529755,560.546509 
z"/>
<path fill="#F7F6E0" opacity="1.000000" stroke="none" 
	d="
M246.351410,482.544067 
	C245.950287,484.173035 245.650970,486.084839 244.646957,486.586639 
	C243.774414,487.022736 241.734375,486.202698 240.909225,485.299347 
	C240.291229,484.622742 240.784210,482.931366 240.782501,481.691803 
	C242.570709,481.866058 244.358932,482.040283 246.351410,482.544067 
z"/>
</svg>